<?xml version="1.0" encoding="UTF-8" standalone="no"?>
<!-- Created with Inkscape (http://www.inkscape.org/) -->

<svg
   width="41.844284mm"
   height="43.928478mm"
   viewBox="0 0 41.844284 43.928478"
   version="1.1"
   id="svg5"
   inkscape:version="1.2.2 (732a01da63, 2022-12-09)"
   sodipodi:docname="client_vs_server.svg"
   xml:space="preserve"
   xmlns:inkscape="http://www.inkscape.org/namespaces/inkscape"
   xmlns:sodipodi="http://sodipodi.sourceforge.net/DTD/sodipodi-0.dtd"
   xmlns="http://www.w3.org/2000/svg"
   xmlns:svg="http://www.w3.org/2000/svg"><sodipodi:namedview
     id="namedview7"
     pagecolor="#ffffff"
     bordercolor="#000000"
     borderopacity="0.25"
     inkscape:showpageshadow="2"
     inkscape:pageopacity="0.0"
     inkscape:pagecheckerboard="0"
     inkscape:deskcolor="#d1d1d1"
     inkscape:document-units="mm"
     showgrid="false"
     inkscape:zoom="1.6819304"
     inkscape:cx="136.45035"
     inkscape:cy="203.93234"
     inkscape:window-width="1680"
     inkscape:window-height="979"
     inkscape:window-x="-8"
     inkscape:window-y="-8"
     inkscape:window-maximized="1"
     inkscape:current-layer="layer1" /><defs
     id="defs2" /><g
     inkscape:label="Ebene 1"
     inkscape:groupmode="layer"
     id="layer1"
     transform="translate(-2.0906422,-1.8778784)"><rect
       style="fill:#ffffff;stroke-width:0.134826"
       id="rect167"
       width="41.844284"
       height="43.928478"
       x="2.0906422"
       y="1.8778784" /><path
       style="fill:#000000;stroke-width:0.134826"
       d="m 22.047124,29.674466 c 0,-0.119146 -0.204611,-0.202239 -0.359839,-0.202239 -0.490836,0 -1.713504,-0.66595 -2.163375,-1.178324 -0.671456,-0.764749 -0.983064,-1.587871 -0.983064,-2.596803 0,-2.843478 2.943229,-4.69978 5.482143,-3.457604 1.018862,0.498483 1.653787,1.26518 2.004835,2.420923 0.268166,0.88289 0.271172,0.963603 0.06671,1.792123 -0.377811,1.530992 -1.332802,2.553247 -2.717806,2.909222 -0.370775,0.0953 -0.722649,0.250143 -0.781954,0.344104 -0.146983,0.232894 -0.547654,0.232894 -0.547654,-0.0314 z m 0.177639,-1.405489 c 0.299887,-0.51348 0.545249,-0.988346 0.545249,-1.055257 0,-0.06691 -0.166846,-0.09939 -0.370769,-0.07217 -0.656378,0.0876 -1.125517,-0.365937 -2.031751,-1.964193 -0.468614,-0.826454 -0.881561,-1.502643 -0.91766,-1.502643 -0.03608,0 -0.188447,0.277644 -0.338553,0.616988 -0.528393,1.194513 -0.28116,2.737443 0.606989,3.78808 0.312718,0.369929 1.559117,1.122797 1.858836,1.122797 0.05632,0 0.347767,-0.420119 0.647659,-0.933598 z m -1.382176,-0.100426 c 0.183703,0 0.12849,-0.540201 0.247125,-0.421563 0.0479,0.04791 0.02925,0.190452 -0.04143,0.316768 -0.07069,0.126315 -0.28644,0.104795 -0.205702,0.104795 z M 20.2336,27.576237 c 0.03246,-0.09733 0.138616,-0.203502 0.235945,-0.235946 0.101116,-0.03371 0.151676,0.01685 0.117973,0.117973 -0.03246,0.09733 -0.138621,0.203502 -0.235945,0.235945 -0.101121,0.03371 -0.151682,-0.01685 -0.117973,-0.117972 z m -0.362346,-0.665703 c 0.04581,-0.07415 0.140419,-0.134826 0.210196,-0.134826 0.06978,0 0.12687,0.06067 0.12687,0.134826 0,0.07415 -0.09459,0.134825 -0.210196,0.134825 -0.115608,0 -0.172702,-0.06067 -0.12687,-0.134825 z M 19.6016,26.236403 c 0.04581,-0.07415 0.170755,-0.134825 0.277608,-0.134825 0.106859,0 0.194282,0.06067 0.194282,0.134825 0,0.07416 -0.124923,0.134827 -0.277608,0.134827 -0.152685,0 -0.240113,-0.06067 -0.194282,-0.134827 z m -0.06741,-0.674129 c 0,-0.07415 0.09101,-0.134827 0.202237,-0.134827 0.111235,0 0.202241,0.06067 0.202241,0.134827 0,0.07415 -0.09101,0.134826 -0.202241,0.134826 -0.111231,0 -0.202237,-0.06067 -0.202237,-0.134826 z m 4.128417,3.439974 c 1.365808,-0.570671 2.208407,-1.811895 2.208407,-3.253181 0,-1.276867 0.01172,-1.265401 -1.295273,-1.265401 -0.622379,0 -1.131595,0.03335 -1.131595,0.07411 0,0.04076 0.09691,0.261514 0.215358,0.490564 0.303484,0.58688 0.179371,1.01649 -0.755985,2.616753 -0.4442,0.759959 -0.807637,1.416785 -0.807637,1.459614 0,0.15779 1.102178,0.07164 1.566725,-0.122457 z m -0.77006,-2.287595 c 0,0.234539 0.457169,-0.385108 0.552969,-0.616384 0.346733,-0.837094 -0.451394,-1.744477 -1.359076,-1.545117 -1.019045,0.223821 -1.201459,1.651833 -0.2753,2.155191 0.451171,0.245207 1.081407,-0.515896 1.081407,0.0063 z m -1.809039,-1.689401 c 0.349769,-0.676374 0.797133,-0.811239 2.691008,-0.811239 1.898414,0 1.948215,-0.03223 1.287751,-0.833484 -0.948876,-1.151153 -2.828498,-1.536011 -4.247231,-0.869633 -0.370769,0.174152 -0.784639,0.440979 -0.919708,0.592951 -0.239807,0.269826 -0.231893,0.300312 0.337066,1.298525 0.320454,0.562217 0.596253,1.022856 0.612886,1.023643 0.01661,8.16e-4 0.123838,-0.179555 0.238228,-0.400763 z m 3.096637,-1.494338 c -0.09116,0.01823 -0.0565,-0.176171 -0.01692,-0.215741 0.09658,-0.09658 0.359533,0.07359 0.359533,0.232668 0,0.172304 -0.137731,-0.0579 -0.34261,-0.01693 z m -1.073065,-0.54766 c -0.222462,-0.07094 -0.662335,-0.09722 -0.977489,-0.0584 -0.560241,0.069 -0.783559,-0.08428 -0.359742,-0.24691 0.50063,-0.192111 2.078775,0.06903 2.078775,0.343981 0,0.140236 -0.215766,0.128986 -0.741544,-0.03867 z m 6.026719,5.653052 c 0.146829,0 -0.161791,-0.63518 -0.161791,-1.483086 v -1.321295 h -0.606714 c -0.449418,0 -0.60672,0.05243 -0.60672,0.202239 0,0.111232 -0.02828,0.202239 -0.06284,0.202239 -0.146193,0 -1.015768,-0.461685 -1.015768,-0.539303 0,-0.04669 0.219169,-0.189399 0.487045,-0.31714 0.447303,-0.213302 0.500044,-0.214475 0.646375,-0.01436 0.107082,0.146446 0.312116,0.203363 0.625268,0.173578 l 0.465938,-0.04432 0.04026,-0.769445 c 0.03628,-0.693001 0.09836,-0.833652 0.625023,-1.415673 l 0.584767,-0.646228 1.571637,-0.04545 c 1.272866,-0.03681 1.634632,-0.0042 1.902965,0.17164 l 0.331323,0.217091 v 2.68378 c 0,2.260035 -0.03348,2.717235 -0.211872,2.895652 -0.174648,0.174648 -0.584421,0.211869 -2.332489,0.211869 -1.469604,0 -2.440978,-0.161791 -2.282413,-0.161791 z M 33.556093,25.6971 V 23.000579 H 32.013344 30.4706 l -0.04148,0.573011 c -0.04128,0.570225 -0.04423,0.573211 -0.614471,0.61447 l -0.573011,0.04146 v 0.657001 c 0,0.573768 0.03842,0.664558 0.303358,0.716674 l 0.303357,0.05967 -0.303357,0.100254 c -0.285919,0.09449 -0.303358,0.172987 -0.303358,1.365376 v 1.265122 h 2.157215 2.157219 z m -4.179609,2.165173 c 0,-0.152685 0.06068,-0.277609 0.13483,-0.277609 0.07415,0 0.134824,0.08743 0.134824,0.194281 0,0.106855 -0.06067,0.231779 -0.134824,0.277609 -0.07415,0.04583 -0.13483,-0.0416 -0.13483,-0.194281 z m 0.539308,0 c 0,-0.152685 0.06067,-0.277609 0.134824,-0.277609 0.07415,0 0.134824,0.08743 0.134824,0.194281 0,0.106855 -0.06067,0.231779 -0.134824,0.277609 -0.07415,0.04583 -0.134824,-0.0416 -0.134824,-0.194281 z m 0.539302,0 c 0,-0.152685 0.06067,-0.277609 0.134824,-0.277609 0.07415,0 0.134829,0.08743 0.134829,0.194281 0,0.106855 -0.06067,0.231779 -0.134829,0.277609 -0.07415,0.04583 -0.134824,-0.0416 -0.134824,-0.194281 z m 0.539302,-0.008 c 0,-0.251675 0.03598,-0.287628 0.161791,-0.161791 0.125841,0.125837 0.125841,0.197746 0,0.323582 -0.125835,0.125838 -0.161791,0.08989 -0.161791,-0.161791 z m 0.539307,0 c 0,-0.251675 0.03598,-0.287628 0.161792,-0.161791 0.125835,0.125837 0.125835,0.197746 0,0.323582 -0.125841,0.125838 -0.161792,0.08989 -0.161792,-0.161791 z m 0.539303,0 c 0,-0.251675 0.03598,-0.287628 0.161791,-0.161791 0.125835,0.125837 0.125835,0.197746 0,0.323582 -0.125835,0.125838 -0.161791,0.08989 -0.161791,-0.161791 z m 0.539302,0 c 0,-0.251675 0.03598,-0.287628 0.161791,-0.161791 0.125841,0.125837 0.125841,0.197746 0,0.323582 -0.125835,0.125838 -0.161791,0.08989 -0.161791,-0.161791 z m 0.473531,0.137473 c -0.05472,-0.08853 -0.03883,-0.221639 0.03536,-0.295793 0.175708,-0.175708 0.315368,0.05026 0.173216,0.280272 -0.08287,0.13409 -0.132975,0.137819 -0.208561,0.01552 z m -3.035223,-1.744147 c 0,-0.06797 0.07584,-0.154193 0.168533,-0.191595 0.134824,-0.0544 0.134824,-0.07013 0,-0.07865 -0.09269,-0.0059 -0.168533,-0.07132 -0.168533,-0.145471 0,-0.08042 0.516835,-0.134825 1.280846,-0.134825 0.764016,0 1.280846,0.0544 1.280846,0.134825 0,0.07416 -0.271116,0.134827 -0.602485,0.134827 -0.48015,0 -0.586724,0.04107 -0.524876,0.202239 0.0633,0.164948 -0.06178,0.202239 -0.678361,0.202239 -0.415786,0 -0.75597,-0.05562 -0.75597,-0.123591 z m 0,-1.089843 c 0,-0.07931 0.47189,-0.134827 1.146022,-0.134827 0.674131,0 1.146021,0.05552 1.146021,0.134827 0,0.07931 -0.47189,0.134826 -1.146021,0.134826 -0.674132,0 -1.146022,-0.05552 -1.146022,-0.134826 z m 0,-0.404478 c 0,-0.07704 0.404478,-0.134827 0.94378,-0.134827 0.539307,0 0.943785,0.05778 0.943785,0.134827 0,0.07704 -0.404478,0.134826 -0.943785,0.134826 -0.539302,0 -0.94378,-0.05778 -0.94378,-0.134826 z m 2.089802,0 c -0.04724,-0.07647 0.06602,-0.134827 0.261694,-0.134827 0.189762,0 0.345025,0.06067 0.345025,0.134827 0,0.07415 -0.117763,0.134826 -0.261694,0.134826 -0.143935,0 -0.299194,-0.06067 -0.345025,-0.134826 z M 30.18544,23.516382 v -0.427981 l -0.337061,0.316656 c -0.185387,0.174165 -0.337065,0.366753 -0.337065,0.42798 0,0.06123 0.151676,0.111325 0.337065,0.111325 0.288743,0 0.337061,-0.06135 0.337061,-0.42798 z M 18.872159,22.040264 c -0.87833,-0.302695 -0.905567,-0.3259 -0.688935,-0.586925 0.130916,-0.157743 0.133861,-0.249705 0.01269,-0.395733 -0.204763,-0.246726 0.06054,-0.435471 0.315119,-0.224187 0.132607,0.110054 0.221916,0.09572 0.34767,-0.05581 0.09307,-0.112145 0.212861,-0.203901 0.266194,-0.203901 0.109712,0 0.617537,1.592823 0.532045,1.668787 -0.03042,0.02703 -0.383564,-0.06397 -0.784756,-0.202235 z m 5.848204,0.0032 c 0,-0.789246 0.520937,-1.469775 0.621701,-1.469775 0.05971,0 0.146188,0.06089 0.192188,0.135321 0.04601,0.07443 0.240373,0.09598 0.431949,0.0479 0.320718,-0.0805 0.341387,-0.05983 0.260894,0.260894 -0.0481,0.191574 -0.02655,0.385951 0.0479,0.431948 0.275407,0.170212 0.117361,0.321605 -0.572516,0.548413 -0.389313,0.127992 -0.790678,0.26339 -0.891931,0.300883 -0.137902,0.05107 -0.09019,-0.0031 -0.09019,-0.255584 z M 3.4321116,21.844928 c -0.185028,-0.18503 -0.2118675,-0.848496 -0.2118675,-5.237317 0,-4.697345 0.016103,-5.040017 0.2465596,-5.248583 0.2107413,-0.19072 0.6092471,-0.223136 2.7430361,-0.223136 2.85098,0 2.9427449,0.03291 2.9427449,1.055518 v 0.562394 h 3.1636673 c 2.978253,0 3.171765,0.01512 3.301769,0.258046 0.08297,0.155032 0.142274,1.621039 0.148547,3.672241 0.01299,4.250608 0.259085,3.889621 -2.651551,3.889621 -1.293362,0 -2.074867,0.05078 -2.074867,0.134826 0,0.07415 0.216342,0.134826 0.480757,0.134826 0.530884,0 0.914485,0.161935 1.3731,0.579654 0.686336,0.625132 0.625304,0.63378 -4.4733351,0.63378 -4.1626761,0 -4.8039247,-0.02724 -4.9885603,-0.21187 z m 5.248583,-5.248583 v -4.988562 l -2.4169261,-0.03691 c -1.8433802,-0.02815 -2.4427975,0.0038 -2.525925,0.134826 -0.1321643,0.20825 -0.1517627,9.728217 -0.020281,9.859683 0.051055,0.05106 1.1886481,0.07634 2.5279889,0.05618 l 2.4351588,-0.03665 z m -4.6514945,3.909954 c 0,-0.20973 0.076401,-0.337065 0.2022365,-0.337065 0.1258404,0 0.2022415,0.127335 0.2022415,0.337065 0,0.20973 -0.076401,0.337065 -0.2022415,0.337065 -0.1258354,0 -0.2022365,-0.127335 -0.2022365,-0.337065 z m 1.0336648,0.24718 c -0.1696081,-0.169607 -0.089869,-0.584245 0.1123521,-0.584245 0.1258405,0 0.2022416,0.127335 0.2022416,0.337065 0,0.32734 -0.1312828,0.430491 -0.3145937,0.24718 z m 0.9496916,-0.179632 c -0.079367,-0.303498 0.1303553,-0.502048 0.3248512,-0.30755 0.137148,0.137149 0.023033,0.577067 -0.1496938,0.577067 -0.057572,0 -0.1363937,-0.121283 -0.1751574,-0.269517 z m 0.982814,-0.05631 c 0,-0.226575 0.073955,-0.3483 0.2116178,-0.3483 0.1405315,0 0.1971406,0.09835 0.1685329,0.292797 -0.063519,0.431646 -0.3801507,0.477875 -0.3801507,0.0555 z m 0.9437802,-0.01124 c 0,-0.20973 0.076401,-0.337065 0.2022416,-0.337065 0.1258353,0 0.2022364,0.127335 0.2022364,0.337065 0,0.20973 -0.076401,0.337065 -0.2022364,0.337065 -0.1258404,0 -0.2022416,-0.127335 -0.2022416,-0.337065 z M 4.6012632,18.934629 c -0.3861128,-0.386114 -0.041887,-0.982463 0.5190567,-0.899255 0.40936,0.06072 0.6370346,0.445337 0.4450865,0.751892 -0.1813743,0.289674 -0.7369221,0.374585 -0.9641432,0.147363 z m 0.6413711,-0.391266 c 0,-0.06978 -0.091011,-0.126868 -0.2022418,-0.126868 -0.208494,0 -0.2678599,0.159089 -0.1160208,0.310929 0.1077198,0.107717 0.3182626,-0.01405 0.3182626,-0.184061 z m 0.8647752,0.36344 c -0.1640639,-0.427552 0.00153,-0.826185 0.3601955,-0.867896 0.4186392,-0.04866 0.6996412,0.247412 0.6392358,0.673525 -0.034142,0.240823 -0.1429011,0.320305 -0.4831671,0.353098 -0.2944702,0.02838 -0.4645268,-0.0239 -0.5162642,-0.158727 z m 0.6183073,-0.36344 c 0,-0.06978 -0.06067,-0.126868 -0.1348243,-0.126868 -0.074154,0 -0.1348243,0.09459 -0.1348243,0.210196 0,0.115608 0.06067,0.172699 0.1348243,0.126869 0.074154,-0.04583 0.1348243,-0.140419 0.1348243,-0.210197 z M 4.4673816,14.472835 c 0.080106,-0.240318 3.3579599,-0.240318 3.4380656,0 0.043059,0.129137 -0.3587892,0.168532 -1.7190327,0.168532 -1.3602437,0 -1.762077,-0.0394 -1.7190329,-0.168532 z m 0.060115,-0.591544 c -0.2594315,-0.259432 0.050448,-0.318532 1.6701541,-0.318532 1.3511374,0 1.7508763,0.03944 1.7080156,0.168533 -0.061175,0.184239 -3.2043626,0.323804 -3.3781697,0.149999 z m 7.7260874,7.56879 c -0.127359,-0.153458 -0.472807,-0.202239 -1.43218,-0.202239 -1.0339761,0 -1.2643413,-0.03685 -1.2643413,-0.202239 0,-0.146061 0.1498059,-0.202239 0.5393073,-0.202239 0.296616,0 0.539302,-0.06067 0.539302,-0.134826 0,-0.07416 -0.333692,-0.134826 -0.7415435,-0.134826 H 9.1525847 v 0.539304 0.539304 h 1.6344223 c 1.437531,0 1.614202,-0.02436 1.466577,-0.202239 z m 2.934872,-1.393477 c 0.132185,-0.0839 0.162755,-0.870593 0.13483,-3.469705 l -0.03613,-3.361204 -3.06729,-0.03624 -3.0672966,-0.03624 v 2.901291 2.90129 h 0.4718953 c 0.329575,0 0.4718903,0.06099 0.4718903,0.202239 0,0.141246 -0.1423153,0.202239 -0.4718903,0.202239 -0.4344412,0 -0.4718953,0.0321 -0.4718953,0.404477 v 0.404478 l 2.9324666,-0.002 c 1.612857,-0.0011 3.009393,-0.05089 3.103405,-0.110566 z m -4.552784,-0.898565 c 0,-0.20973 0.0764,-0.337065 0.202237,-0.337065 0.12584,0 0.202241,0.127335 0.202241,0.337065 0,0.20973 -0.0764,0.337065 -0.202241,0.337065 -0.125836,0 -0.202237,-0.127335 -0.202237,-0.337065 z m 0.995019,0.141283 c -0.04133,-0.107682 -0.03582,-0.259361 0.01218,-0.337066 0.157031,-0.254086 0.34105,-0.148448 0.34105,0.195783 0,0.365497 -0.231649,0.458148 -0.353239,0.141283 z m 1.027371,-0.141283 c 0,-0.227707 0.0618,-0.338938 0.168533,-0.303359 0.09269,0.0309 0.168533,0.16741 0.168533,0.303359 0,0.135949 -0.07584,0.27246 -0.168533,0.303358 -0.106736,0.03558 -0.168533,-0.07565 -0.168533,-0.303358 z m 0.773734,0.122077 C 13.246345,19.094662 13.495748,18.9558 14.01428,18.9558 h 0.531348 v -2.490252 -2.490254 l -1.708005,-0.03773 c -1.239336,-0.02738 -1.723706,-0.08502 -1.765232,-0.210046 -0.04505,-0.135651 0.354183,-0.164335 1.876534,-0.134826 l 1.933764,0.03748 v 2.831346 2.831346 l -0.679309,0.03976 c -0.373618,0.02187 -0.72083,-0.0018 -0.771584,-0.05251 z M 9.5570627,13.773138 c 0,-0.156272 0.1415915,-0.210378 0.5505383,-0.210378 0.70248,0 0.655899,0.318804 -0.05536,0.378911 -0.3766656,0.03183 -0.4951783,-0.0085 -0.4951783,-0.168533 z M 29.368632,21.18427 c -0.64156,-0.348944 -0.687702,-0.660336 -0.675447,-4.558246 0.01249,-3.975568 0.05755,-4.231307 0.799458,-4.538617 0.264812,-0.10969 0.964606,-0.149988 2.08571,-0.12011 1.568508,0.0418 1.711629,0.06795 2.034701,0.371824 l 0.347517,0.326862 v 3.942837 c 0,2.16856 -0.03771,4.041051 -0.08375,4.16109 -0.179,0.466469 -0.783197,0.612964 -2.504951,0.60736 -1.152488,-0.0038 -1.763524,-0.06262 -2.003234,-0.193 z m 4.1124,-0.505733 c 0.177634,-0.253607 0.209886,-0.870509 0.209886,-4.014779 0,-3.144271 -0.03226,-3.761172 -0.209886,-4.014779 -0.288533,-0.411945 -0.417844,-0.376888 -0.595508,0.161453 -0.173333,0.525196 -0.641911,0.75348 -1.540472,0.750488 -0.887614,-0.003 -1.152626,-0.130039 -1.438097,-0.689608 -0.3038,-0.595496 -0.303194,-0.595176 -0.588252,-0.310116 -0.182821,0.182818 -0.211867,0.745337 -0.211867,4.102562 0,3.357225 0.02905,3.919744 0.211867,4.102562 0.172243,0.172244 0.561663,0.21187 2.082158,0.21187 1.779862,0 1.880437,-0.01449 2.080171,-0.299653 z M 29.376484,20.30406 c 0,-0.148309 0.06068,-0.269652 0.13483,-0.269652 0.07415,0 0.134824,0.121343 0.134824,0.269652 0,0.148308 -0.06067,0.269652 -0.134824,0.269652 -0.07415,0 -0.13483,-0.121344 -0.13483,-0.269652 z m 0.674132,0 c 0,-0.262802 0.143008,-0.351357 0.305304,-0.189057 0.10801,0.10801 -0.03333,0.458709 -0.184901,0.458709 -0.06622,0 -0.120403,-0.121344 -0.120403,-0.269652 z m 0.808956,0 c 0,-0.148309 0.06067,-0.269652 0.134824,-0.269652 0.07415,0 0.134829,0.121343 0.134829,0.269652 0,0.148308 -0.06068,0.269652 -0.134829,0.269652 -0.07415,0 -0.134824,-0.121344 -0.134824,-0.269652 z m 0.808956,0 c 0,-0.148309 0.06067,-0.269652 0.134824,-0.269652 0.07415,0 0.134829,0.121343 0.134829,0.269652 0,0.148308 -0.06067,0.269652 -0.134829,0.269652 -0.07415,0 -0.134824,-0.121344 -0.134824,-0.269652 z m 0.745753,0.0953 c -0.05772,-0.132968 -0.0671,-0.279591 -0.02089,-0.325828 0.136914,-0.136916 0.247283,0.05541 0.184269,0.32109 -0.05587,0.235535 -0.06314,0.235745 -0.163402,0.0047 z m 0.737334,-0.0953 c 0,-0.148309 0.06067,-0.269652 0.134825,-0.269652 0.07415,0 0.134824,0.121343 0.134824,0.269652 0,0.148308 -0.06067,0.269652 -0.134824,0.269652 -0.07415,0 -0.134825,-0.121344 -0.134825,-0.269652 z m -0.580649,-7.550256 0.167932,-0.337065 -1.294106,-0.0388 c -0.711759,-0.02134 -1.318896,-0.01401 -1.349191,0.01629 -0.03027,0.03029 0.0187,0.216958 0.108821,0.414809 0.159111,0.349204 0.19366,0.358586 1.181259,0.320781 0.932029,-0.03568 1.185285,-0.03101 1.185285,-0.376011 z m -1.981048,0 c 0,-0.07415 0.08743,-0.134826 0.194282,-0.134826 0.106859,0 0.231782,0.06067 0.277613,0.134826 0.04581,0.07415 -0.04158,0.134826 -0.194282,0.134826 -0.152685,0 -0.277613,-0.06067 -0.277613,-0.134826 z m 0.808956,0 c 0,-0.07415 0.182016,-0.134826 0.404478,-0.134826 0.222467,0 0.404478,0.06067 0.404478,0.134826 0,0.07415 -0.182011,0.134826 -0.404478,0.134826 -0.222462,0 -0.404478,-0.06067 -0.404478,-0.134826 z m -13.94873,7.559572 c -0.09971,-0.161333 0.153918,-0.321186 0.333504,-0.210196 0.150784,0.09319 0.0518,0.335706 -0.137026,0.335706 -0.0654,0 -0.153816,-0.05648 -0.196478,-0.12551 z m 9.094994,-0.07673 c 0,-0.111232 0.09101,-0.202239 0.202242,-0.202239 0.111231,0 0.202236,0.09101 0.202236,0.202239 0,0.111231 -0.091,0.202239 -0.202236,0.202239 -0.111231,0 -0.202242,-0.09101 -0.202242,-0.202239 z m -9.769125,-0.597401 c -0.09971,-0.161333 0.153923,-0.321186 0.333509,-0.210196 0.150779,0.09319 0.05179,0.335706 -0.137026,0.335706 -0.0654,0 -0.153821,-0.05648 -0.196483,-0.12551 z m 10.443257,-0.08796 c 0,-0.117412 0.07205,-0.189459 0.160104,-0.160106 0.25,0.08333 0.291464,0.37358 0.05337,0.37358 -0.117407,0 -0.213473,-0.09606 -0.213473,-0.213474 z M 16.16354,18.888387 c 0,-0.123591 0.06522,-0.20297 0.144934,-0.176397 0.07972,0.02657 0.14494,0.10595 0.14494,0.176397 0,0.07045 -0.06522,0.149825 -0.14494,0.176397 -0.07971,0.02657 -0.144934,-0.05281 -0.144934,-0.176397 z m 11.729862,0 c 0,-0.123591 0.06522,-0.20297 0.144934,-0.176397 0.07972,0.02657 0.144939,0.10595 0.144939,0.176397 0,0.07045 -0.06522,0.149825 -0.144939,0.176397 -0.07971,0.02657 -0.144934,-0.05281 -0.144934,-0.176397 z m -8.884793,-1.331725 c -0.107455,-0.129473 -0.143075,-1.037823 -0.117631,-2.999878 l 0.03648,-2.814175 3.361206,-0.03611 c 2.599111,-0.02792 3.385808,0.0026 3.469705,0.134826 0.182878,0.288122 0.137785,5.552306 -0.04917,5.739254 -0.2503,0.250301 -6.491521,0.228027 -6.700612,-0.02391 z m 6.525337,-2.915294 v -2.629107 l -3.210845,-0.03617 -3.210844,-0.03617 0.04245,0.440646 0.04245,0.440645 2.595401,0.03662 c 1.536777,0.02168 2.595401,0.08924 2.595401,0.165622 0,0.07638 -1.058624,0.143939 -2.595401,0.165621 l -2.595401,0.03662 -0.03725,2.058545 -0.03725,2.058544 3.205647,-0.03615 3.205642,-0.03616 z m -5.662692,1.887564 c 0.04581,-0.07415 0.292095,-0.134826 0.547262,-0.134826 0.255161,0 0.46393,0.06067 0.46393,0.134826 0,0.07415 -0.246264,0.134826 -0.547262,0.134826 -0.330502,0 -0.514256,-0.0534 -0.46393,-0.134826 z m 2.763934,-0.741543 V 14.91102 h 1.078604 1.07861 v 0.876369 0.876369 h -1.07861 -1.078604 z m 1.88756,0 v -0.606717 h -0.808956 -0.808956 v 0.606717 0.606717 h 0.808956 0.808956 z m -4.620186,0.390846 c -0.223006,-0.223009 0.129061,-0.323433 1.133905,-0.323433 0.805363,0 1.067633,0.04307 1.026123,0.168532 -0.06008,0.181579 -1.994618,0.320309 -2.160028,0.154901 z m -0.0319,-0.594037 c 0,-0.0878 0.0051,-0.16996 0.114033,-0.211739 0.320225,-0.12288 1.074518,-0.0039 1.134552,0.178984 0.06831,0.208091 -1.248585,0.275553 -1.248585,0.03276 z m 1.551091,-0.06646 c 0,-0.111232 0.091,-0.202239 0.202236,-0.202239 0.111231,0 0.202242,0.09101 0.202242,0.202239 0,0.111231 -0.09101,0.202239 -0.202242,0.202239 -0.111231,0 -0.202236,-0.09101 -0.202236,-0.202239 z m -1.483088,-0.471891 c 0,-0.07865 0.449418,-0.134826 1.07861,-0.134826 0.629187,0 1.078604,0.05618 1.078604,0.134826 0,0.07865 -0.449417,0.134826 -1.078604,0.134826 -0.629192,0 -1.07861,-0.05618 -1.07861,-0.134826 z m -0.08305,-0.733668 c -0.04102,-0.106899 -0.05351,-0.304082 -0.02772,-0.438184 0.04286,-0.222949 0.257337,-0.246969 2.505684,-0.280569 l 2.458834,-0.03675 v 0.474933 0.474933 H 22.36132 c -1.992819,0 -2.444545,-0.03504 -2.505685,-0.194364 z m 3.622227,-0.310423 c -0.611769,-0.02498 -1.612857,-0.02498 -2.224626,0 -0.611775,0.02498 -0.111231,0.04542 1.112313,0.04542 1.223544,0 1.724088,-0.02044 1.112313,-0.04542 z m 1.112319,-0.978299 c 0.04581,-0.07415 0.231425,-0.134826 0.412432,-0.134826 0.181007,0 0.329106,0.06067 0.329106,0.134826 0,0.07415 -0.185593,0.134826 -0.412432,0.134826 -0.240623,0 -0.377725,-0.05617 -0.329106,-0.134826 z M 19.534183,12.41674 c 0,-0.200986 0.05806,-0.317098 0.134824,-0.269652 0.07415,0.04583 0.13483,0.167174 0.13483,0.269652 0,0.102479 -0.06068,0.223822 -0.13483,0.269652 -0.07677,0.04745 -0.134824,-0.06867 -0.134824,-0.269652 z m 0.584584,0.125763 c -0.04459,-0.116216 -0.01233,-0.280029 0.07165,-0.36403 0.113754,-0.113754 0.152726,-0.05983 0.152726,0.211302 0,0.405651 -0.100947,0.474366 -0.224372,0.152728 z m 1.222086,0.02254 c -0.04933,-0.128616 -0.02298,-0.300585 0.05857,-0.382155 0.107863,-0.107861 0.172783,-0.08453 0.238045,0.08554 0.04933,0.128616 0.02298,0.300585 -0.05857,0.382155 -0.107863,0.107861 -0.172783,0.08453 -0.238045,-0.08554 z m 0.665479,-0.02254 c -0.04459,-0.116216 -0.01233,-0.280029 0.07164,-0.36403 0.113753,-0.113754 0.152731,-0.05983 0.152731,0.211302 0,0.405651 -0.100953,0.474366 -0.224373,0.152728 z m 0.628851,-0.125763 c 0,-0.200986 0.05806,-0.317098 0.134824,-0.269652 0.07415,0.04583 0.134824,0.167174 0.134824,0.269652 0,0.102479 -0.06067,0.223822 -0.134824,0.269652 -0.07677,0.04745 -0.134824,-0.06867 -0.134824,-0.269652 z m 0.584583,0.125763 c -0.04459,-0.116216 -0.01233,-0.280029 0.07164,-0.36403 0.113753,-0.113754 0.152731,-0.05983 0.152731,0.211302 0,0.405651 -0.100953,0.474366 -0.224373,0.152728 z m 1.222082,0.02254 c -0.04938,-0.128616 -0.02298,-0.300585 0.05858,-0.382155 0.107857,-0.107861 0.172783,-0.08453 0.238044,0.08554 0.04933,0.128616 0.02298,0.300585 -0.05858,0.382155 -0.107857,0.107861 -0.172777,0.08453 -0.238044,-0.08554 z m -3.694231,-0.148309 c 0,-0.111231 0.06067,-0.202239 0.134824,-0.202239 0.07415,0 0.13483,0.09101 0.13483,0.202239 0,0.111231 -0.06068,0.202239 -0.13483,0.202239 -0.07415,0 -0.134824,-0.09101 -0.134824,-0.202239 z m 3.101,-0.07537 c 0,-0.152685 0.06067,-0.240112 0.134824,-0.194282 0.07415,0.04583 0.134824,0.170755 0.134824,0.27761 0,0.106855 -0.06067,0.194281 -0.134824,0.194281 -0.07415,0 -0.134824,-0.124924 -0.134824,-0.277609 z m 1.213434,0.07537 c 0,-0.111231 0.06067,-0.202239 0.134824,-0.202239 0.07415,0 0.134824,0.09101 0.134824,0.202239 0,0.111231 -0.06067,0.202239 -0.134824,0.202239 -0.07415,0 -0.134824,-0.09101 -0.134824,-0.202239 z M 14.35103,8.5441988 c -0.291876,-0.416717 -0.311098,-5.3079089 -0.02242,-5.7027177 0.182505,-0.249588 0.564302,-0.2553666 14.391156,-0.2178076 9.639132,0.026182 14.258324,0.083938 14.373728,0.1797172 0.1266,0.1050669 0.170057,0.8378939 0.170057,2.8676615 0,2.4701877 -0.02319,2.7475064 -0.246565,2.9496629 -0.22612,0.2046365 -1.415894,0.2231353 -14.351322,0.2231353 H 14.5609 Z m 4.244117,-1.7958655 c 0.231242,-0.2786258 -0.04846,-0.6112028 -0.30136,-0.3583157 -0.376787,0.3767875 -1.051643,0.01198 -1.051643,-0.5684858 0,-0.1685961 0.121591,-0.4165754 0.270199,-0.5510654 0.229326,-0.2075356 0.324362,-0.2198511 0.628204,-0.081411 0.283886,0.1293463 0.379875,0.127733 0.463635,-0.00779 C 18.7786,4.8990488 18.45591,4.6642462 17.893641,4.6642462 c -1.073066,0 -1.605845,1.2151219 -0.859863,1.9611055 0.39049,0.39049 1.281136,0.4606432 1.561369,0.1229832 z M 19.669012,5.732967 c 0,-1.0923678 -0.02527,-1.2184915 -0.235945,-1.1782104 -0.199566,0.038157 -0.241948,0.2267544 -0.274897,1.2233198 -0.03664,1.1085627 -0.02273,1.1782104 0.235945,1.1782104 0.256451,0 0.274897,-0.082098 0.274897,-1.2233198 z m 0.943786,0.3469506 c 0,-0.6891107 -0.04321,-0.8763691 -0.202242,-0.8763691 -0.159024,0 -0.202236,0.1872584 -0.202236,0.8763691 0,0.6891107 0.04321,0.8763692 0.202236,0.8763692 0.15903,0 0.202242,-0.1872585 0.202242,-0.8763692 z M 22.48393,6.83447 c 0.29265,-0.1853623 0.06805,-0.3783621 -0.366143,-0.3146353 -0.216948,0.031839 -0.435552,-0.00861 -0.485786,-0.089893 -0.06113,-0.098909 0.111954,-0.1477854 0.523337,-0.1477854 0.524789,0 0.614674,-0.039431 0.614674,-0.269652 0,-0.5596152 -0.833013,-1.0138271 -1.29437,-0.7057715 -0.481812,0.3217148 -0.526217,1.2474055 -0.07255,1.5123496 0.277527,0.1620751 0.836677,0.1700352 1.080837,0.015389 z M 21.590287,5.8439721 c 0.03088,-0.092693 0.167406,-0.1685324 0.303357,-0.1685324 0.13595,0 0.272461,0.075839 0.303357,0.1685324 0.03557,0.1067375 -0.07565,0.1685325 -0.303357,0.1685325 -0.227705,0 -0.338936,-0.061795 -0.303357,-0.1685325 z m 1.988681,0.5895191 c 0,-0.5307054 0.274016,-0.9220074 0.533396,-0.7617016 0.0774,0.047839 0.140736,0.356419 0.140736,0.6857372 0,0.5088759 0.04046,0.59876 0.269648,0.59876 0.22397,0 0.269654,-0.089884 0.269654,-0.5305269 0,-0.2917898 -0.05789,-0.6827802 -0.128638,-0.8688671 -0.11515,-0.3028705 -0.199954,-0.3367157 -0.808956,-0.322844 l -0.680318,0.015496 v 0.8533703 c 0,0.668668 0.04377,0.8533708 0.202242,0.8533708 0.144995,0 0.202236,-0.1479724 0.202236,-0.5227947 z m 2.561692,0.3205566 c 0,-0.1112314 -0.091,-0.202239 -0.202236,-0.202239 -0.141245,0 -0.202242,-0.1423167 -0.202242,-0.4718912 0,-0.3295745 0.061,-0.4718911 0.202242,-0.4718911 0.111231,0 0.202236,-0.091007 0.202236,-0.202239 0,-0.1112313 -0.091,-0.202239 -0.202236,-0.202239 -0.111231,0 -0.202242,-0.091007 -0.202242,-0.2022385 0,-0.2820685 -0.367686,-0.2532575 -0.525248,0.041159 -0.140995,0.263446 -0.0525,1.2958903 0.143824,1.677874 0.150371,0.2925832 0.785902,0.3198406 0.785902,0.033709 z m 1.921713,-0.030901 c 0.244164,-0.2209685 0.264425,-0.2209685 0.388085,0 0.07176,0.1282263 0.252929,0.2331393 0.402602,0.2331393 0.267234,0 0.266755,-0.00756 -0.02675,-0.4197444 -0.284584,-0.3996635 -0.288248,-0.4377469 -0.07659,-0.7960519 0.122258,-0.2069694 0.222288,-0.4124503 0.222288,-0.4566247 0,-0.161542 -0.376232,-0.074569 -0.542125,0.1253232 -0.15296,0.1843034 -0.194246,0.1843034 -0.3979,0 -0.232892,-0.2107662 -0.604706,-0.2860422 -0.516264,-0.1045206 0.02711,0.055616 0.131767,0.2654812 0.232602,0.4663678 0.158913,0.3166006 0.153847,0.4102469 -0.03801,0.703093 -0.121754,0.1858143 -0.221366,0.3703148 -0.221366,0.4100008 0,0.1533857 0.32774,0.06138 0.573449,-0.1609825 z m 3.749846,0.093569 c 0.168874,-0.090379 0.260787,-0.2821409 0.260787,-0.5440948 0,-0.3518659 -0.08011,-0.4388628 -0.615347,-0.6682949 -0.701868,-0.3008547 -0.68975,-0.5903127 0.01916,-0.4573234 0.368349,0.069103 0.461378,0.043268 0.461378,-0.1281203 0,-0.2754506 -0.607489,-0.4298886 -1.063837,-0.2704532 -0.267422,0.09343 -0.362107,0.2292161 -0.394628,0.5659497 -0.03929,0.4068858 0.002,0.4606009 0.505599,0.6584414 0.301614,0.1184768 0.548388,0.2972171 0.548388,0.3972 0,0.2132576 -0.319022,0.2370085 -0.668837,0.049796 -0.177099,-0.094781 -0.29074,-0.078844 -0.403092,0.05653 -0.31467,0.3791575 0.768057,0.6520542 1.350444,0.3403715 z m 2.08094,-0.1300821 c 0,-0.1472815 -0.119078,-0.1903179 -0.438186,-0.1583709 -0.249908,0.02502 -0.438187,-0.018431 -0.438187,-0.1011198 0,-0.079743 0.242687,-0.1449873 0.539307,-0.1449873 0.4636,0 0.539303,-0.041092 0.539303,-0.292742 0,-0.6787094 -0.855353,-1.0297015 -1.371353,-0.5627303 -0.30965,0.2802341 -0.318833,0.9566145 -0.01753,1.2895807 0.282943,0.3126484 1.18662,0.2900833 1.18662,-0.029632 z M 33.016786,5.810265 c 0,-0.112355 0.119848,-0.202239 0.269654,-0.202239 0.149806,0 0.269653,0.089884 0.269653,0.202239 0,0.1123551 -0.119847,0.2022391 -0.269653,0.2022391 -0.149806,0 -0.269654,-0.089884 -0.269654,-0.2022391 z m 2.02239,0.5940947 c 0,-0.438537 0.0554,-0.5664129 0.269654,-0.6224415 0.148307,-0.038784 0.269653,-0.177631 0.269653,-0.3085489 0,-0.1865811 -0.116576,-0.239642 -0.539307,-0.2454762 l -0.539302,-0.00744 v 0.8679182 c 0,0.7780332 0.02793,0.8679173 0.269653,0.8679173 0.225739,0 0.269649,-0.089884 0.269649,-0.5519266 z M 37.189638,6.1361705 C 37.354105,5.6851074 37.455863,5.2832461 37.415759,5.2431458 37.250564,5.0779512 36.946213,5.3472604 36.861332,5.7337421 36.741999,6.2770593 36.579387,6.2570537 36.387439,5.6754392 36.281829,5.3554493 36.148901,5.203548 35.974472,5.203548 c -0.276732,0 -0.299174,-0.09501 0.374229,1.5842058 0.0372,0.092693 0.174312,0.1685324 0.304749,0.1685324 0.167564,0 0.324912,-0.2406668 0.536188,-0.8201157 z m 1.961735,0.5504636 c 0,-0.1459622 -0.118212,-0.1904224 -0.424815,-0.1597738 -0.233647,0.023354 -0.464751,-0.022146 -0.513553,-0.1011192 -0.05781,-0.093543 0.125483,-0.143585 0.525931,-0.143585 0.499142,0 0.614674,-0.045047 0.614674,-0.2396523 0,-0.4231993 -0.394323,-0.8389558 -0.795707,-0.8389558 -0.756414,0 -1.147515,1.0036914 -0.603199,1.5480079 0.281155,0.2811529 1.196669,0.2314842 1.196669,-0.064922 z M 38.233724,5.926286 c -0.140567,-0.1405684 0.03745,-0.31826 0.318889,-0.31826 0.143931,0 0.261694,0.091008 0.261694,0.202239 0,0.1999807 -0.41391,0.2826937 -0.580583,0.116021 z m 2.063666,0.4954401 c 0,-0.3965724 0.06961,-0.5718128 0.269654,-0.6788738 0.461331,-0.2468979 0.325264,-0.5067488 -0.269654,-0.5149592 l -0.539302,-0.00744 v 0.8679182 c 0,0.7780332 0.02792,0.8679173 0.269653,0.8679173 0.224312,0 0.269649,-0.089884 0.269649,-0.5345602 z M 20.612798,4.799071 c 0,-0.1498069 -0.08989,-0.2696521 -0.202242,-0.2696521 -0.112352,0 -0.202236,0.1198452 -0.202236,0.2696521 0,0.1498065 0.08988,0.2696517 0.202236,0.2696517 0.112357,0 0.202242,-0.1198452 0.202242,-0.2696517 z"
       id="path185"
       sodipodi:nodetypes="sssssssscssssssssssssscsscscsccsssccssscsssssssssssssscsssssssssscsscsssssssssscsssssssccscsscscsssccccsscsscssccccsssssssssssssssscssscssscssscssccsccsssssssssssssssssssscssscscsssscscssssccsscsccssssssssscscsssssssccscssccssssssssssssssscssssssssssssssccsscsssssscsssssssssssscccsscccccccssssccccsssssccsccssssscscccscscccscssssscssscsccsssssssssssssssssssssssssssssssccsccsssssccsccsscsscsssssssssssssssssssssssssssssssssscccsscccccccccssscccccccssscccccccccccccccccccsssssccssssssssssssccscccsccsssscssscsssssccsccccccscsssssssscsscccccsssssssssssssssccsssssccscsssssssssscsssssssssssssssscscscssssssscssssssssssscssscsscsssscccscccsssssccssscccssssscccssssssssscsssssccsscssssssssssssssssscsssssssss" /><path
       d="m 11.096197,39.31391 c 0,-1.621074 -1.8076633,-0.100494 -2.4767859,-0.468435 -0.8200087,-0.450911 -1.2676378,-0.969427 -1.5653489,-1.813233 -0.5564802,-1.577236 0.097865,-3.208524 1.6031444,-3.996638 0.5132985,-0.268747 0.8010116,-0.519159 0.9154681,-0.796788 0.2569091,-0.623158 1.1694213,-1.537052 1.9225893,-1.925498 0.909643,-0.469154 2.396013,-0.503484 3.325153,-0.0768 1.422402,0.653203 2.267548,1.852976 2.401756,3.409529 0.07044,0.816982 0.105727,0.895493 0.480502,1.069055 0.874584,0.405044 1.544573,1.377651 1.544573,2.242231 0,0.677347 -0.46256,1.499807 -1.069356,1.901365 -0.462926,0.306348 -0.732606,0.37589 -1.594787,0.411245 -2.409028,0.09878 -5.486908,1.697123 -5.486908,0.04398 z m 6.303115,-0.543516 c 0.459523,-0.127614 0.505599,-0.182837 0.505599,-0.605966 0,-0.497797 0.176248,-0.608513 0.382367,-0.2402 0.212535,0.379779 0.608213,-0.545636 0.518685,-1.213107 -0.128842,-0.96059 -0.976719,-1.708085 -1.937993,-1.708554 -0.49793,-2.7e-4 -0.736831,-0.254346 -0.337352,-0.358815 0.358596,-0.09377 0.443614,-0.479274 0.287387,-1.303064 -0.233641,-1.231977 -0.90735,-2.087937 -2.148918,-2.73022 -0.715932,-0.370361 -2.192309,-0.340734 -2.968514,0.05958 -1.172556,0.604722 -1.8984147,1.608984 -2.090959,2.892959 -0.1081173,0.720988 -0.3764155,0.790815 -0.4431601,0.115333 -0.041276,-0.417696 -0.04999,-0.422807 -0.404478,-0.237596 -0.8826665,0.461148 -1.5105692,1.518437 -1.5053562,2.534771 0.00459,0.90262 0.7469148,2.281015 1.0041857,1.864735 0.1541679,-0.249444 0.3411119,-0.151243 0.3411119,0.179183 0,0.403143 0.2171314,0.584746 0.8869266,0.741804 0.7445151,0.174581 7.2875341,0.182159 7.9104681,0.0092 z M 9.1899761,38.305571 c -0.096433,-0.251303 0.030473,-0.606714 0.2166677,-0.606714 0.076478,0 0.1390538,0.182016 0.1390538,0.404478 0,0.423373 -0.2223495,0.549789 -0.3557215,0.202236 z m 0.9437849,0 c -0.09644,-0.251303 0.03047,-0.606714 0.216663,-0.606714 0.07648,0 0.139059,0.182016 0.139059,0.404478 0,0.423373 -0.222355,0.549789 -0.355722,0.202236 z m 1.029849,-0.202236 c 0,-0.426166 0.186923,-0.544887 0.31841,-0.202242 0.09211,0.240032 -0.02757,0.60672 -0.198007,0.60672 -0.06622,0 -0.120403,-0.182016 -0.120403,-0.404478 z m 0.943785,0 c 0,-0.281639 0.05736,-0.407831 0.168533,-0.370774 0.09269,0.03088 0.168533,0.197747 0.168533,0.370774 0,0.173027 -0.07584,0.339874 -0.168533,0.370769 -0.111175,0.03705 -0.168533,-0.08913 -0.168533,-0.370769 z m 0.94378,0 c 0,-0.281639 0.05736,-0.407831 0.168533,-0.370774 0.09269,0.03088 0.168533,0.197747 0.168533,0.370774 0,0.173027 -0.07584,0.339874 -0.168533,0.370769 -0.111175,0.03705 -0.168533,-0.08913 -0.168533,-0.370769 z m 0.992537,0.202236 c -0.09643,-0.251303 0.03047,-0.606714 0.216668,-0.606714 0.07648,0 0.139053,0.182016 0.139053,0.404478 0,0.423373 -0.222349,0.549789 -0.355721,0.202236 z m 0.943785,0 c -0.09644,-0.251303 0.03047,-0.606714 0.216663,-0.606714 0.07648,0 0.139059,0.182016 0.139059,0.404478 0,0.423373 -0.222355,0.549789 -0.355722,0.202236 z m 0.943781,0 c -0.09643,-0.251303 0.03047,-0.606714 0.216662,-0.606714 0.07648,0 0.139059,0.182016 0.139059,0.404478 0,0.423373 -0.222355,0.549789 -0.355721,0.202236 z m 1.029853,-0.202236 c 0,-0.438365 0.200188,-0.551053 0.299392,-0.168533 0.07559,0.291418 -0.0108,0.573011 -0.175804,0.573011 -0.06797,0 -0.123588,-0.182016 -0.123588,-0.404478 z m -2.360205,-6.472471 c -0.134631,-0.148767 -0.204611,-0.31065 -0.155518,-0.359742 0.131532,-0.131533 0.762981,0.24152 0.762981,0.450763 0,0.266509 -0.328438,0.217299 -0.607463,-0.09102 z m -2.898009,-0.170633 c 0,-0.343323 1.303318,-0.721593 1.937672,-0.562381 0.688196,0.172727 0.39896,0.430722 -0.555705,0.495678 -0.500544,0.03404 -1.016253,0.108066 -1.146022,0.164466 -0.164849,0.07165 -0.235945,0.04219 -0.235945,-0.09776 z"
       style="fill:#000000;stroke-width:0.134826"
       id="path295"
       sodipodi:nodetypes="sssssssscssssscssscssssssccsssccssssssssssssscsssscssssssssssssssssssssssssscss" /><path
       d="m 36.259692,44.373748 c -0.06695,-0.06694 -0.09594,-0.49861 -0.09594,-1.42822 v -1.332275 l 0.398828,-0.373057 0.398831,-0.373061 1.060317,0.0223 1.060319,0.0223 0.02164,1.668838 c 0.01508,1.163523 -0.006,1.702185 -0.06975,1.778964 -0.122675,0.147815 -2.6278,0.160618 -2.774236,0.01417 z m 2.70242,-1.703007 v -1.639045 h -0.959441 -0.959438 v 0.359792 0.359789 h -0.359789 -0.359792 v 1.279253 1.279257 h 1.31923 1.31923 z m -1.87227,1.329962 c -0.03808,-0.05331 -0.04103,-0.122915 -0.01462,-0.149305 0.07156,-0.07155 0.149576,0.03368 0.110926,0.149628 -0.02707,0.08124 -0.0406,0.07765 -0.09629,-3.03e-4 z m -0.686234,-0.09068 c 0,-0.04397 0.03598,-0.07995 0.07995,-0.07995 0.04397,0 0.07995,0.03598 0.07995,0.07995 0,0.04398 -0.03598,0.07995 -0.07995,0.07995 -0.04398,0 -0.07995,-0.03598 -0.07995,-0.07995 z m 0.319812,0 c 0,-0.04397 0.03598,-0.07995 0.07995,-0.07995 0.04398,0 0.07995,0.03598 0.07995,0.07995 0,0.04398 -0.03598,0.07995 -0.07995,0.07995 -0.04398,0 -0.07995,-0.03598 -0.07995,-0.07995 z m 0.639629,0 c 0,-0.04397 0.03598,-0.07995 0.07995,-0.07995 0.04397,0 0.07995,0.03598 0.07995,0.07995 0,0.04398 -0.03598,0.07995 -0.07995,0.07995 -0.04398,0 -0.07995,-0.03598 -0.07995,-0.07995 z m 0.319809,0 c 0,-0.04397 0.03598,-0.07995 0.07995,-0.07995 0.04398,0 0.07995,0.03598 0.07995,0.07995 0,0.04398 -0.03598,0.07995 -0.07995,0.07995 -0.04397,0 -0.07995,-0.03598 -0.07995,-0.07995 z m 0.319813,0 c 0,-0.04397 0.03598,-0.07995 0.07995,-0.07995 0.04398,0 0.07995,0.03598 0.07995,0.07995 0,0.04398 -0.03598,0.07995 -0.07995,0.07995 -0.04397,0 -0.07995,-0.03598 -0.07995,-0.07995 z m 0.319815,0 c 0,-0.04397 0.03598,-0.07995 0.07995,-0.07995 0.04397,0 0.07995,0.03598 0.07995,0.07995 0,0.04398 -0.03598,0.07995 -0.07995,0.07995 -0.04398,0 -0.07995,-0.03598 -0.07995,-0.07995 z m 0.319813,0 c 0,-0.04397 0.03598,-0.07995 0.07995,-0.07995 0.04398,0 0.07996,0.03598 0.07996,0.07995 0,0.04398 -0.03598,0.07995 -0.07996,0.07995 -0.04397,0 -0.07995,-0.03598 -0.07995,-0.07995 z m -1.798947,-0.959442 c 0.02717,-0.04398 0.227184,-0.07995 0.444461,-0.07995 0.217275,0 0.395045,0.03598 0.395045,0.07995 0,0.04397 -0.200005,0.07995 -0.444458,0.07995 -0.27595,0 -0.425729,-0.03031 -0.395048,-0.07995 z m 0,-0.23986 c 0.02717,-0.04398 0.3711,-0.07995 0.764271,-0.07995 0.423272,0 0.714863,0.03261 0.714863,0.07995 0,0.04773 -0.30806,0.07995 -0.764277,0.07995 -0.489154,0 -0.746484,-0.02877 -0.714857,-0.07995 z m 0.03998,-0.399768 c 0.158506,-0.102436 1.255918,-0.102436 1.319226,0 0.03161,0.05115 -0.218749,0.07951 -0.694873,0.07873 -0.510075,-9.17e-4 -0.706545,-0.02563 -0.624353,-0.07873 z m -0.03998,-0.23986 c 0.02717,-0.04398 0.281154,-0.07995 0.56439,-0.07995 0.290014,0 0.514977,0.03493 0.514977,0.07995 0,0.04575 -0.241432,0.07995 -0.56439,0.07995 -0.3559,0 -0.546138,-0.02952 -0.514977,-0.07995 z m 1.27925,0 c 0.02717,-0.04398 0.09914,-0.07995 0.159908,-0.07995 0.06077,0 0.132729,0.03598 0.159905,0.07995 0.02813,0.04553 -0.04072,0.07995 -0.159905,0.07995 -0.119188,0 -0.188044,-0.03443 -0.159908,-0.07995 z m -1.159321,-0.719581 c 0,-0.131923 -0.02925,-0.239861 -0.06499,-0.239861 -0.03575,0 -0.168406,0.107938 -0.294795,0.239861 l -0.229801,0.23986 h 0.294795 c 0.274249,0 0.294795,-0.01671 0.294795,-0.23986 z m -3.555503,0.542318 c -0.01901,-0.05642 -0.04532,-0.19252 -0.05847,-0.302458 -0.02264,-0.189145 -0.05612,-0.202032 -0.623561,-0.23986 l -0.599649,-0.03998 -0.02212,-1.179311 c -0.01442,-0.767743 0.0065,-1.179315 0.05997,-1.179315 0.04515,0 0.08209,0.109582 0.08209,0.243514 v 0.243514 l 0.539686,-0.02363 0.539686,-0.02363 0.0246,-0.339802 0.0246,-0.339802 h 0.346638 c 0.234366,0 0.361544,0.03885 0.392661,0.119932 0.03295,0.08589 0.167217,0.119928 0.472993,0.119928 0.613619,0 0.711878,0.09825 0.681925,0.681837 l -0.02451,0.477488 h -0.919464 -0.919465 l -0.03998,-0.279837 -0.03998,-0.279836 -0.539686,-0.02363 -0.539683,-0.02363 v 0.883142 0.883138 h 0.559673 0.559673 v -0.359788 -0.359792 h 0.310024 c 0.178036,0 0.352398,0.05106 0.409556,0.119932 0.06506,0.07839 0.243148,0.119928 0.514206,0.119928 0.6008,0 0.699464,0.100468 0.669626,0.681837 l -0.02451,0.477488 -0.900973,0.02263 c -0.678033,0.01702 -0.909526,-0.0027 -0.935532,-0.07995 z m 1.516693,-0.502339 v -0.47972 l -0.423925,-0.02433 c -0.278501,-0.01599 -0.439143,-0.06396 -0.468286,-0.139917 -0.02662,-0.06941 -0.15277,-0.115607 -0.315645,-0.115607 H 33.44533 v 0.586326 c 0,0.322481 0.0253,0.611606 0.05618,0.642505 0.0309,0.03089 0.363705,0.04589 0.73957,0.03331 l 0.683391,-0.02287 z m -1.392873,0.233197 c 0.09322,0 0.02278,-0.112087 0.0483,-0.04831 0.02309,0.05772 0.02025,0.12668 -0.0063,0.153244 -0.02656,0.02656 -0.126366,-0.104937 -0.042,-0.104937 z m 0.319813,0 c 0.09322,0 0.02278,-0.112087 0.0483,-0.04831 0.02309,0.05772 0.02025,0.12668 -0.0063,0.153244 -0.02656,0.02656 -0.126362,-0.104937 -0.04199,-0.104936 z m 0.319813,0 c 0.09322,0 0.02278,-0.112087 0.0483,-0.04831 0.02309,0.05772 0.02025,0.12668 -0.0063,0.153244 -0.02657,0.02656 -0.126362,-0.104937 -0.042,-0.104937 z m 1.033083,-0.193221 c 0,-0.219873 -0.03598,-0.399768 -0.07995,-0.399768 -0.04397,0 -0.07995,0.179895 -0.07995,0.399768 0,0.219871 0.03598,0.399765 0.07995,0.399765 0.04398,0 0.07995,-0.179894 0.07995,-0.399765 z m -0.279836,-1.878905 v -0.479721 l -0.423925,-0.0243 c -0.278501,-0.01599 -0.439143,-0.06397 -0.468286,-0.139917 -0.02662,-0.06941 -0.15277,-0.115608 -0.315645,-0.115608 H 33.44533 v 0.586323 c 0,0.322481 0.0253,0.611606 0.05618,0.642505 0.0309,0.0309 0.363705,0.04589 0.73957,0.03331 l 0.683391,-0.02287 z m -1.392873,0.233197 c 0.09322,0 0.02278,-0.112087 0.0483,-0.0483 0.02309,0.05771 0.02025,0.126676 -0.0063,0.153245 -0.02656,0.02656 -0.126339,-0.10494 -0.042,-0.10494 z m 0.319813,0 c 0.09322,0 0.02278,-0.112087 0.0483,-0.0483 0.02309,0.05771 0.02025,0.126676 -0.0063,0.153245 -0.02656,0.02656 -0.126335,-0.10494 -0.04199,-0.10494 z m 0.319813,0 c 0.09322,0 0.02278,-0.112087 0.0483,-0.0483 0.02309,0.05771 0.02025,0.126676 -0.0063,0.153245 -0.02657,0.02656 -0.126335,-0.10494 -0.042,-0.10494 z m 0.319815,0 c 0.09322,0 0.02278,-0.112087 0.0483,-0.0483 0.02309,0.05771 0.02025,0.126676 -0.0063,0.153245 -0.02656,0.02656 -0.126337,-0.10494 -0.04199,-0.10494 z m 0.713268,-0.193221 c 0,-0.21987 -0.03598,-0.399768 -0.07995,-0.399768 -0.04397,0 -0.07995,0.179898 -0.07995,0.399768 0,0.21987 0.03598,0.399768 0.07995,0.399768 0.04398,0 0.07995,-0.179898 0.07995,-0.399768 z m -3.118183,-0.999417 v -0.199884 h -2.349768 c -2.811872,0 -2.737157,0.02239 -2.712,-0.812379 0.01599,-0.530021 0.01765,-0.693039 0.0158,-1.546246 -6.11e-4,-0.285832 -6.11e-4,-0.600649 3.02e-4,-0.699591 9.18e-4,-0.09894 -0.01677,-0.521696 -0.03901,-0.939454 l -0.04043,-0.759556 0.356444,-0.729865 c 0.196044,-0.401423 0.439732,-0.788199 0.541524,-0.859496 0.159717,-0.11187 0.484655,-0.129635 2.371263,-0.129635 1.361653,0 2.244829,0.03139 2.34167,0.08321 0.08552,0.04577 0.319208,0.409203 0.519313,0.807635 0.338944,0.674875 0.363584,0.766251 0.360284,1.335959 -0.0021,0.336345 -0.0053,1.374822 -0.0073,2.307725 -0.0037,1.652961 -0.0083,1.699316 -0.179024,1.818939 -0.103844,0.07272 -0.347246,0.122751 -0.597223,0.122751 -0.396782,0 -0.421954,0.01194 -0.421954,0.199884 0,0.109935 -0.03598,0.199884 -0.07995,0.199884 -0.04397,0 -0.07995,-0.08995 -0.07995,-0.199884 z m 1.103354,-0.986411 c 0.01442,-0.304733 -0.01339,-0.551707 -0.06975,-0.619637 -0.07741,-0.09328 -0.571274,-0.112949 -2.835805,-0.112949 -1.508132,0 -2.798974,0.02185 -2.868531,0.04853 -0.09798,0.0376 -0.126468,0.169682 -0.126468,0.586321 0,0.295789 0.02442,0.562223 0.05429,0.592079 0.02986,0.02986 1.352086,0.04485 2.938285,0.03332 l 2.884003,-0.02097 z m -1.043391,0.220448 c -0.275321,-0.160358 -0.146536,-0.633222 0.172461,-0.633222 0.391491,0 0.540188,0.334587 0.260989,0.58726 -0.167873,0.15192 -0.238642,0.159427 -0.43345,0.04596 z m 0.339802,-0.268713 c 0,-0.164232 -0.165522,-0.244928 -0.243522,-0.11872 -0.03616,0.0585 -0.048,0.135068 -0.02632,0.170149 0.06719,0.108724 0.269843,0.0701 0.269842,-0.05143 z m -4.702571,-0.0072 c 0.01393,-0.111301 0.06128,-0.202368 0.105252,-0.202368 0.04397,0 0.09134,0.09107 0.105251,0.202368 0.01804,0.144228 -0.01221,0.202368 -0.105251,0.202368 -0.09304,0 -0.123283,-0.05814 -0.105252,-0.202368 z m 0.624949,-0.03749 c 0,-0.167012 0.03402,-0.241846 0.09994,-0.21987 0.05497,0.01831 0.09994,0.117266 0.09994,0.21987 0,0.102608 -0.04497,0.201549 -0.09994,0.219874 -0.06593,0.02197 -0.09994,-0.05286 -0.09994,-0.219874 z m 0.610714,0.119932 c -0.0525,-0.136818 0.01496,-0.359792 0.108866,-0.359792 0.0939,0 0.16137,0.222974 0.108868,0.359792 -0.02532,0.06596 -0.0743,0.119928 -0.108868,0.119928 -0.03457,0 -0.08356,-0.05397 -0.108866,-0.119928 z m 0.617499,0 c -0.05719,-0.149029 0.01807,-0.359792 0.128487,-0.359792 0.04536,0 0.08246,0.107938 0.08246,0.23986 0,0.251069 -0.131856,0.326035 -0.210947,0.119932 z m 0.625393,-0.08244 c 0.0139,-0.111305 0.06128,-0.202368 0.105254,-0.202368 0.04397,0 0.09134,0.09106 0.105251,0.202368 0.01804,0.144227 -0.01221,0.202367 -0.105251,0.202367 -0.09305,0 -0.123286,-0.05814 -0.105254,-0.202367 z m 0.521938,0.07271 c -0.139017,-0.139018 -0.02351,-0.190151 0.429488,-0.190151 0.353371,0 0.477376,0.02735 0.453449,0.09994 -0.03572,0.108397 -0.787902,0.185243 -0.882937,0.09021 z m 2.381683,-1.589335 v -0.559673 h -2.918299 -2.918298 l -0.0243,0.470767 c -0.01336,0.258922 -0.0053,0.520222 0.01786,0.580662 0.03491,0.09097 0.541674,0.106279 2.942606,0.08891 l 2.900436,-0.02097 z m -1.063381,0.263847 c -0.132541,-0.132544 -0.120221,-0.423999 0.02294,-0.542822 0.160173,-0.132932 0.49796,-0.03868 0.559814,0.156212 0.112713,0.355129 -0.324312,0.645059 -0.582759,0.38661 z m 0.383776,-0.263847 c 0,-0.06596 -0.05397,-0.119929 -0.119928,-0.119929 -0.06596,0 -0.119932,0.05397 -0.119932,0.119929 0,0.06596 0.05397,0.119932 0.119932,0.119932 0.06596,0 0.119928,-0.05397 0.119928,-0.119932 z m -4.666121,0.224361 c -0.10297,-0.10297 -0.05087,-0.424245 0.0688,-0.424245 0.07385,0 0.119931,0.07499 0.119931,0.195167 0,0.200618 -0.09811,0.319701 -0.188733,0.229078 z m 0.639628,0 c -0.10297,-0.10297 -0.05087,-0.424245 0.0688,-0.424245 0.07385,0 0.119929,0.07499 0.119929,0.195167 0,0.200618 -0.09811,0.319701 -0.188731,0.229078 z m 0.593536,-0.05838 c -0.111026,-0.133781 -0.0635,-0.365863 0.07492,-0.365863 0.125244,0 0.184152,0.210738 0.100628,0.359988 -0.06547,0.116979 -0.08285,0.117563 -0.175543,0.0059 z m 0.605765,0.05838 c -0.10297,-0.10297 -0.05087,-0.424245 0.0688,-0.424245 0.07385,0 0.119928,0.07499 0.119928,0.195167 0,0.200618 -0.09811,0.319701 -0.18873,0.229078 z m 0.639629,0 c -0.102974,-0.10297 -0.05087,-0.424245 0.0688,-0.424245 0.07385,0 0.119929,0.07499 0.119929,0.195167 0,0.200618 -0.09811,0.319701 -0.18873,0.229078 z m 0.484065,-0.155559 c -0.117212,-0.117212 0.06049,-0.188731 0.468942,-0.188731 0.333386,0 0.435023,0.02801 0.435023,0.119929 0,0.09161 -0.100682,0.119932 -0.426417,0.119932 -0.23453,0 -0.449426,-0.023 -0.477548,-0.05113 z m 2.327135,-1.004255 c 0.05581,-0.05581 0.09594,-0.323367 0.09594,-0.639628 v -0.543689 h -2.958275 -2.958274 v 0.592989 c 0,0.39958 0.0326,0.606139 0.09994,0.633315 0.05497,0.02218 1.343014,0.04317 2.86233,0.04664 2.04916,0.0047 2.787162,-0.01846 2.858333,-0.08963 z m -0.963439,-0.230275 c -0.220979,-0.12871 -0.18339,-0.536888 0.05964,-0.647621 0.164891,-0.07513 0.227395,-0.06574 0.359789,0.05408 0.209823,0.189885 0.203189,0.40088 -0.01747,0.555433 -0.206647,0.144744 -0.217169,0.145741 -0.401965,0.03811 z m 0.299826,-0.313409 c 0,-0.05863 -0.04498,-0.121597 -0.09994,-0.139919 -0.05945,-0.01982 -0.09994,0.03687 -0.09994,0.139919 0,0.103051 0.04049,0.159735 0.09994,0.139918 0.05497,-0.01832 0.09994,-0.08129 0.09994,-0.139918 z m -4.677272,0 c 0,-0.159908 0.03998,-0.239861 0.119929,-0.239861 0.07995,0 0.119931,0.07995 0.119931,0.239861 0,0.159907 -0.03998,0.23986 -0.119931,0.23986 -0.07995,0 -0.119929,-0.07995 -0.119929,-0.23986 z m 0.639626,0 c 0,-0.167013 0.03402,-0.241846 0.09994,-0.219871 0.05497,0.01831 0.09994,0.117263 0.09994,0.219871 0,0.102607 -0.04497,0.201549 -0.09994,0.219873 -0.06593,0.02197 -0.09994,-0.05286 -0.09994,-0.219873 z m 0.59921,0.159191 c -0.0625,-0.10112 0.02738,-0.399052 0.12037,-0.399052 0.093,0 0.182871,0.297932 0.120373,0.399052 -0.02741,0.04437 -0.08159,0.08067 -0.120373,0.08067 -0.03878,0 -0.09295,-0.0363 -0.12037,-0.08067 z m 0.629003,-0.03926 c -0.05719,-0.149029 0.01807,-0.359792 0.128487,-0.359792 0.04536,0 0.08246,0.107938 0.08246,0.239861 0,0.251068 -0.131856,0.326031 -0.210947,0.119931 z m 0.610715,-0.119931 c 0,-0.159908 0.03998,-0.239861 0.119932,-0.239861 0.07995,0 0.119929,0.07995 0.119929,0.239861 0,0.159907 -0.03998,0.23986 -0.119929,0.23986 -0.07996,0 -0.119932,-0.07995 -0.119932,-0.23986 z m 0.734717,0.103335 c -0.43157,-0.05582 -0.25803,-0.223264 0.231387,-0.223264 0.331659,0 0.433081,0.02807 0.433081,0.119929 0,0.128069 -0.214878,0.161488 -0.664468,0.103335 z m 2.223558,-1.021625 c 0,-0.02134 -0.151933,-0.34515 -0.337629,-0.71958 L 32.530208,32.236842 H 30.242484 27.95476 l -0.332921,0.662711 c -0.183106,0.364488 -0.332918,0.688301 -0.332918,0.719581 0,0.03128 1.331223,0.05687 2.958274,0.05687 1.627052,0 2.958275,-0.01747 2.958275,-0.0388 z m -5.143666,-0.973949 c -0.15808,-0.158076 0.0962,-0.186557 1.665695,-0.186557 1.474695,0 1.718997,0.01705 1.718997,0.119931 0,0.102768 -0.238379,0.119929 -1.665694,0.119929 -0.916135,0 -1.689683,-0.024 -1.718998,-0.0533 z m 3.704505,-0.06203 c 0,-0.09462 0.08801,-0.124528 0.366455,-0.124528 0.471885,0 0.444168,0.189313 -0.03287,0.22447 -0.259218,0.0191 -0.333589,-0.0032 -0.333589,-0.09994 z"
       style="fill:#000000;stroke-width:0.0799534"
       id="path318" /><path
       d="m 16.811298,30.290256 c 0.143856,-0.432809 0.281883,-0.807601 0.306722,-0.832867 0.02483,-0.02525 0.304764,0.20926 0.622044,0.521173 0.317284,0.311917 0.55655,0.587795 0.531709,0.613063 -1.190077,0.354263 -1.958312,1.209533 -1.460475,-0.301369 z m 1.154309,-0.881682 c 0.234686,-0.119859 0.470733,0.05405 0.303816,0.223838 -0.08231,0.08373 -0.218157,0.08489 -0.301885,0.0026 -0.08373,-0.08231 -0.08459,-0.184197 -0.0019,-0.226413 z m 0.66164,-0.673026 c 0.234684,-0.119856 0.470731,0.05405 0.303816,0.223839 -0.08231,0.08373 -0.21816,0.08489 -0.301888,0.0026 -0.08373,-0.08231 -0.08459,-0.184198 -0.0019,-0.226418 z"
       style="fill:#000000;stroke-width:0.134826"
       id="path341" /><path
       d="m 25.269995,34.286333 c -0.820064,0.411893 -0.797877,0.409513 -0.797877,0.08574 0,-0.142127 -0.07584,-0.285878 -0.168533,-0.319449 -0.134825,-0.04882 -0.134825,-0.118121 0,-0.346473 0.09269,-0.156986 0.168533,-0.376609 0.168533,-0.488039 0,-0.160731 0.153266,-0.127435 0.741543,0.161083 0.407847,0.20003 0.741539,0.408524 0.741539,0.463329 0,0.05481 -0.308341,0.25452 -0.685205,0.443807 z M 23.46888,33.956361 c -0.115608,0 -0.210196,-0.06067 -0.210196,-0.134824 0,-0.07415 0.05709,-0.134824 0.126869,-0.134824 0.06978,0 0.164365,0.06067 0.210196,0.134824 0.04581,0.07415 -0.01126,0.134824 -0.126869,0.134824 z m -0.835719,0.04128 c -0.107715,0.10772 -0.318263,-0.01406 -0.318263,-0.18406 0,-0.06978 0.09101,-0.126869 0.202242,-0.126869 0.208494,0 0.26786,0.15909 0.116021,0.310929 z m -0.943781,0 c -0.107719,0.10772 -0.318262,-0.01406 -0.318262,-0.18406 0,-0.06978 0.09101,-0.126869 0.202242,-0.126869 0.208494,0 0.267854,0.15909 0.11602,0.310929 z m -0.943786,0 c -0.107715,0.10772 -0.318257,-0.01406 -0.318257,-0.18406 0,-0.06978 0.091,-0.126869 0.202236,-0.126869 0.208499,0 0.26786,0.15909 0.116021,0.310929 z m -1.059801,-0.04128 c -0.111231,0 -0.202242,-0.06067 -0.202242,-0.134824 0,-0.07415 0.09101,-0.134824 0.202242,-0.134824 0.111231,0 0.202236,0.06067 0.202236,0.134824 0,0.07415 -0.091,0.134824 -0.202236,0.134824 z"
       style="fill:#000000;stroke-width:0.134826"
       id="path364" /></g></svg>
