<?xml version="1.0" encoding="UTF-8" standalone="no"?>
<!-- Created with Inkscape (http://www.inkscape.org/) -->

<svg
   width="210mm"
   height="297mm"
   viewBox="0 0 210 297"
   version="1.1"
   id="svg5"
   inkscape:version="1.2.2 (732a01da63, 2022-12-09)"
   sodipodi:docname="dteng_dtsci.svg"
   xml:space="preserve"
   xmlns:inkscape="http://www.inkscape.org/namespaces/inkscape"
   xmlns:sodipodi="http://sodipodi.sourceforge.net/DTD/sodipodi-0.dtd"
   xmlns:xlink="http://www.w3.org/1999/xlink"
   xmlns="http://www.w3.org/2000/svg"
   xmlns:svg="http://www.w3.org/2000/svg"><sodipodi:namedview
     id="namedview7"
     pagecolor="#ffffff"
     bordercolor="#cccccc"
     borderopacity="1"
     inkscape:showpageshadow="0"
     inkscape:pageopacity="1"
     inkscape:pagecheckerboard="0"
     inkscape:deskcolor="#d1d1d1"
     inkscape:document-units="mm"
     showgrid="false"
     inkscape:zoom="2"
     inkscape:cx="366.25"
     inkscape:cy="193"
     inkscape:window-width="1680"
     inkscape:window-height="979"
     inkscape:window-x="-8"
     inkscape:window-y="-8"
     inkscape:window-maximized="1"
     inkscape:current-layer="layer1" /><defs
     id="defs2"><linearGradient
       inkscape:collect="always"
       id="linearGradient1360"><stop
         style="stop-color:#000000;stop-opacity:1;"
         offset="0"
         id="stop1358" /><stop
         style="stop-color:#a3a3a3;stop-opacity:1;"
         offset="0.83702213"
         id="stop1356" /></linearGradient><marker
       style="overflow:visible"
       id="Arrow4"
       refX="0"
       refY="0"
       orient="auto-start-reverse"
       inkscape:stockid="Arrow4"
       markerWidth="5"
       markerHeight="6"
       viewBox="0 0 5 6"
       inkscape:isstock="true"
       inkscape:collect="always"
       preserveAspectRatio="xMidYMid"><path
         style="fill:context-stroke;fill-rule:evenodd;stroke:none"
         d="m 1,0 -3,3 h -2 l 3,-3 -3,-3 h 2 z"
         id="path1741" /></marker><radialGradient
       inkscape:collect="always"
       xlink:href="#linearGradient1360"
       id="radialGradient1362"
       cx="111.38956"
       cy="44.241825"
       fx="111.38956"
       fy="44.241825"
       r="0.42094946"
       gradientTransform="matrix(1.6695817,1.23318e-8,0,46.388887,-74.584387,-2008.4743)"
       gradientUnits="userSpaceOnUse" /></defs><g
     inkscape:label="Ebene 1"
     inkscape:groupmode="layer"
     id="layer1"><path
       style="fill:#000000;stroke-width:0.0975397"
       d="m 111.20858,41.052844 c -0.23941,-0.239415 -0.23941,-0.239415 -0.23941,-6.490833 0,-6.251418 0,-6.251418 0.23941,-6.490834 0.23942,-0.239416 0.23942,-0.239416 7.95393,-0.239416 7.71451,0 7.71451,0 7.95393,0.239416 0.23942,0.239416 0.23942,0.239416 0.23942,6.490834 0,6.251418 0,6.251418 -0.23942,6.490833 -0.23941,0.239417 -0.23941,0.239417 -7.95392,0.239417 -7.71452,0 -7.71452,0 -7.95394,-0.239417 z m 15.60949,-0.378888 c 0.13008,-0.198543 0.1462,-0.853497 0.12416,-5.047687 -0.0253,-4.819542 -0.0253,-4.819542 -7.77972,-4.819542 -7.75442,0 -7.75442,0 -7.77974,4.819542 -0.022,4.19419 -0.006,4.849144 0.12418,5.047687 0.14949,0.228145 0.14949,0.228145 7.65556,0.228145 7.50607,0 7.50607,0 7.65556,-0.228145 z m -12.70836,-0.661678 c -0.21457,-0.07937 -0.21967,-0.113074 -0.19299,-1.278411 0.0274,-1.196891 0.0274,-1.196891 0.88089,-1.225073 0.85347,-0.02818 0.85347,-0.02818 0.85347,1.243633 0,1.436163 0.11292,1.266971 -0.87996,1.31849 -0.24257,0.01259 -0.54021,-0.0138 -0.66141,-0.05864 z m 1.15121,-1.256053 c 0,-0.877859 0,-0.877859 -0.43892,-0.877859 -0.43894,0 -0.43894,0 -0.43894,0.877859 0,0.877858 0,0.877858 0.43894,0.877858 0.43892,0 0.43892,0 0.43892,-0.877858 z m 1.78011,1.292005 c -0.21879,-0.03744 -0.21947,-0.0434 -0.21947,-1.93586 0,-2.132624 -0.0434,-2.018362 0.76613,-2.018483 1.10133,-1.66e-4 0.98959,-0.223722 0.98959,1.979559 0,1.950797 0,1.950797 -0.41455,1.957517 -0.228,0.0037 -0.52427,0.01754 -0.65839,0.03077 -0.13412,0.01323 -0.34261,0.0071 -0.46331,-0.0135 z m 1.09731,-1.974784 c 0,-1.511868 0,-1.511868 -0.43893,-1.511868 -0.43893,0 -0.43893,0 -0.46611,1.409842 -0.015,0.775414 -0.004,1.469271 0.0235,1.541905 0.0344,0.08956 0.18439,0.122394 0.46611,0.102025 0.41545,-0.03004 0.41545,-0.03004 0.41545,-1.541904 z m 2.07135,1.969781 c -0.4647,-0.02979 -0.4647,-0.02979 -0.43893,-3.072505 0.0258,-3.04272 0.0258,-3.04272 0.85485,-3.04272 0.82908,0 0.82908,0 0.85487,3.04812 0.0241,2.853058 0.0148,3.048926 -0.14631,3.060699 -0.44509,0.03253 -0.69471,0.03395 -1.12448,0.0064 z m 0.88082,-3.06003 c 0.0287,-2.882911 0.0682,-2.710235 -0.6112,-2.678643 -0.29262,0.01361 -0.29262,0.01361 -0.3187,2.548042 -0.0143,1.393939 -0.004,2.592564 0.0235,2.663614 0.0331,0.08632 0.18741,0.119212 0.46502,0.09914 0.41543,-0.03004 0.41543,-0.03004 0.4414,-2.632153 z m 1.85168,3.062654 c -0.26824,-0.03457 -0.26824,-0.03457 -0.26824,-2.226532 0,-2.191965 0,-2.191965 0.85348,-2.163782 0.85346,0.02818 0.85346,0.02818 0.87985,2.118421 0.0155,1.226678 -0.0119,2.128479 -0.0662,2.182799 -0.0961,0.09612 -0.93152,0.149322 -1.3989,0.08909 z m 0.99977,-2.221864 c 0,-1.810095 0,-1.810095 -0.41453,-1.780102 -0.41456,0.02999 -0.41456,0.02999 -0.44114,1.810096 -0.0266,1.780102 -0.0266,1.780102 0.41455,1.780102 0.44112,0 0.44112,0 0.44112,-1.810096 z m -9.78848,-2.086076 c -0.37777,-0.38335 -0.40439,-0.651665 -0.0556,-0.560458 0.0993,0.02596 0.23136,-0.01411 0.29355,-0.08904 0.15393,-0.185477 0.57113,-0.171679 0.7897,0.02612 0.14957,0.135358 0.23755,0.144513 0.52904,0.05505 0.61844,-0.189806 1.40402,-0.723838 1.40402,-0.954451 0,-0.285714 0.29828,-0.530977 0.64577,-0.530977 0.2142,0 0.40157,-0.114814 0.72387,-0.443526 0.23916,-0.243939 0.67626,-0.606056 0.97132,-0.804704 0.29506,-0.198648 0.55136,-0.394881 0.56956,-0.436074 0.15961,-0.361222 0.76572,-0.489251 0.99699,-0.210594 0.07,0.08439 0.28908,0.235951 0.48676,0.336799 0.19768,0.100849 0.59708,0.400575 0.88756,0.666059 0.5049,0.46145 0.54784,0.480477 0.97557,0.432266 0.27636,-0.03115 0.47312,-0.0088 0.51466,0.05836 0.037,0.05984 0.19633,0.108792 0.35411,0.108792 0.15777,0 0.28685,0.05231 0.28685,0.116255 0,0.161392 -0.7644,0.859144 -0.94121,0.859144 -0.22649,0 -0.52627,-0.190787 -0.60054,-0.382193 -0.0372,-0.0959 -0.34718,-0.411253 -0.68882,-0.700788 -1.0076,-0.853905 -0.95828,-0.830034 -1.2991,-0.628704 -0.25911,0.15306 -0.34345,0.159476 -0.67181,0.05111 -0.35483,-0.117104 -0.39584,-0.108529 -0.74497,0.155746 -0.82395,0.623704 -1.29609,1.135705 -1.29609,1.405522 0,0.340556 -0.27644,0.587009 -0.65843,0.587009 -0.1682,0 -0.67294,0.1942 -1.1408,0.438929 -0.46152,0.241411 -0.89708,0.43893 -0.96793,0.43893 -0.0708,0 -0.20825,0.08779 -0.30535,0.195079 -0.27709,0.306186 -0.63286,0.242451 -1.05867,-0.189658 z m 0.81482,-0.206258 c 0,-0.05048 -0.0658,-0.09178 -0.1463,-0.09178 -0.15084,0 -0.19379,0.115093 -0.0839,0.224941 0.0779,0.07793 0.23024,-0.01016 0.23024,-0.133158 z m 2.9262,-1.268018 c 0,-0.05048 -0.0658,-0.09178 -0.14631,-0.09178 -0.15084,0 -0.19379,0.115094 -0.0839,0.224942 0.0779,0.07793 0.23023,-0.01016 0.23023,-0.133158 z m 5.75485,-0.538841 c 0,-0.172248 -0.20998,-0.142251 -0.27027,0.03861 -0.0212,0.06371 0.0309,0.115828 0.11583,0.115828 0.0849,0 0.15444,-0.0695 0.15444,-0.154438 z m -2.92619,-1.560638 c 0,-0.08494 -0.0521,-0.137064 -0.11585,-0.115828 -0.18085,0.06029 -0.21084,0.270266 -0.0386,0.270266 0.0849,0 0.15444,-0.0695 0.15445,-0.154438 z m 6.22228,-2.660666 c 0.0499,-1.426751 0.93117,-1.281569 -7.77964,-1.281569 -8.70981,0 -7.80647,-0.141717 -7.80647,1.224694 0,0.435121 0.0295,0.820654 0.0656,0.856739 0.0361,0.03608 3.53655,0.05437 7.7788,0.04064 7.71319,-0.02497 7.71319,-0.02497 7.7417,-0.840506 z m -13.95484,0.07087 c -0.35901,-0.200913 -0.0821,-0.748354 0.31485,-0.622377 0.12814,0.04067 0.19976,0.14724 0.19976,0.297246 0,0.284299 -0.27599,0.458669 -0.51461,0.325131 z m 1.43952,-0.0513 c -0.17506,-0.175056 -0.18437,-0.344493 -0.0275,-0.501312 0.27382,-0.273824 0.74671,0.03972 0.6074,0.402744 -0.0804,0.209551 -0.41243,0.26599 -0.57985,0.09857 z m 1.42122,-0.07565 c -0.0863,-0.103974 -0.0885,-0.19196 -0.009,-0.34139 0.20764,-0.387976 0.77235,-0.138959 0.63883,0.281704 -0.0745,0.234856 -0.45504,0.270886 -0.63032,0.05969 z"
       id="path7879" /><path
       style="fill:#ffe680;fill-opacity:1;stroke-width:0.2;stroke-linecap:round;stroke-linejoin:round;stroke-opacity:0.528571"
       d="m 119.01031,45.751878 -9.16734,-14.032703 -7.76418,3.515462 9.16734,14.032704"
       id="path6844"
       sodipodi:nodetypes="cccc" /><text
       xml:space="preserve"
       style="font-size:0.705556px;font-family:Arial;-inkscape-font-specification:Arial;text-align:center;text-anchor:middle;fill:#000000;fill-opacity:1;stroke:none;stroke-width:0.2;stroke-linecap:round;stroke-linejoin:round;stroke-opacity:1"
       x="84.363388"
       y="73.840538"
       id="text6973"
       transform="rotate(-22.291866)"><tspan
         sodipodi:role="line"
         id="tspan6971"
         style="font-size:0.705556px;fill:#000000;fill-opacity:1;stroke:none;stroke-width:0.2"
         x="84.363388"
         y="73.840538">0100 1000</tspan></text><text
       xml:space="preserve"
       style="font-size:2.92481px;font-family:Arial;-inkscape-font-specification:Arial;text-align:center;text-anchor:middle;fill:#ffffff;stroke-width:0.2;stroke-linecap:round;stroke-linejoin:round;stroke-dasharray:0.2, 0.4"
       x="85.127815"
       y="29.810844"
       id="text1568"><tspan
         sodipodi:role="line"
         id="tspan1566"
         style="fill:#000000;fill-opacity:1;stroke-width:0.2"
         x="85.127815"
         y="29.810844">Data Storage Systems</tspan></text><text
       xml:space="preserve"
       style="font-size:2.92481px;font-family:Arial;-inkscape-font-specification:Arial;text-align:center;text-anchor:middle;fill:#ffffff;stroke-width:0.2;stroke-linecap:round;stroke-linejoin:round;stroke-dasharray:0.2, 0.4"
       x="34.836971"
       y="29.810844"
       id="text3906"><tspan
         sodipodi:role="line"
         id="tspan3904"
         style="fill:#000000;fill-opacity:1;stroke-width:0.2"
         x="34.836971"
         y="29.810844">Capture point</tspan></text><text
       xml:space="preserve"
       style="font-size:4.93889px;font-family:Arial;-inkscape-font-specification:Arial;text-align:center;text-anchor:middle;fill:#ffffff;stroke-width:0.2;stroke-linecap:round;stroke-linejoin:round;stroke-dasharray:0.2, 0.4"
       x="57.252331"
       y="21.134554"
       id="text5362"><tspan
         sodipodi:role="line"
         id="tspan5360"
         style="font-size:4.93889px;fill:#000000;fill-opacity:1;stroke-width:0.2"
         x="57.252331"
         y="21.134554">Data Engineering</tspan></text><circle
       style="fill:#000000;fill-opacity:1;stroke-width:0.2;stroke-linecap:round;stroke-linejoin:round;stroke-dasharray:0.2, 0.4"
       id="path6142"
       cx="34.899094"
       cy="38.962288"
       r="1.5572828" /><text
       xml:space="preserve"
       style="font-size:2.92481px;font-family:Arial;-inkscape-font-specification:Arial;text-align:center;text-anchor:middle;fill:#ffffff;stroke-width:0.2;stroke-linecap:round;stroke-linejoin:round;stroke-dasharray:0.2, 0.4"
       x="84.598648"
       y="48.764946"
       id="text11140"><tspan
         sodipodi:role="line"
         id="tspan11138"
         style="fill:#000000;fill-opacity:1;stroke-width:0.2"
         x="84.598648"
         y="48.764946">data warehouse</tspan><tspan
         sodipodi:role="line"
         style="fill:#000000;fill-opacity:1;stroke-width:0.2"
         x="84.598648"
         y="52.420959"
         id="tspan11970">data lake</tspan></text><g
       id="g19618"><g
         id="g19113"
         transform="translate(0.21210286,-9.6446599)"><path
           id="ellipse19054"
           style="fill:#ff2a2a;fill-opacity:1;stroke:#000000;stroke-width:0.288;stroke-linecap:round;stroke-linejoin:round;stroke-dasharray:none;stroke-opacity:1"
           d="m 47.883382,45.332117 c -0.980273,-3.27e-4 -1.775044,1.49551 -1.775085,3.340881 -1.11e-4,1.845573 0.794705,3.341725 1.775085,3.341398 h 1.058333 v -1.85105 c 0.122811,-0.462817 0.186849,-0.973 0.187069,-1.490348 -5e-5,-0.518046 -0.06409,-1.028973 -0.187069,-1.492415 v -1.848466 z"
           sodipodi:nodetypes="ccccccccc" /><ellipse
           style="fill:#ff2a2a;fill-opacity:1;stroke:#000000;stroke-width:0.287768;stroke-linecap:round;stroke-linejoin:round;stroke-dasharray:none;stroke-opacity:1"
           id="path19046"
           cx="48.941616"
           cy="48.673161"
           rx="1.7747709"
           ry="3.3410208" /></g><path
         id="rect12804"
         style="fill:#b3b3b3;fill-opacity:1;stroke:#000000;stroke-width:0.2;stroke-linecap:round;stroke-linejoin:round;stroke-dasharray:none;stroke-opacity:1"
         d="m 49.415877,36.725612 c -0.681109,4.91e-4 -1.233093,1.040145 -1.232999,2.322339 5.8e-5,1.281992 0.551997,2.321331 1.232999,2.321822 h 5.869926 v -4.644161 z"
         sodipodi:nodetypes="cccccc" /><g
         id="g19141"
         transform="translate(4.0576335,-9.6446599)"><path
           id="path19137"
           style="fill:#ff2a2a;fill-opacity:1;stroke:#000000;stroke-width:0.288;stroke-linecap:round;stroke-linejoin:round;stroke-dasharray:none;stroke-opacity:1"
           d="m 47.883382,45.332117 c -0.980273,-3.27e-4 -1.775044,1.49551 -1.775085,3.340881 -1.11e-4,1.845573 0.794705,3.341725 1.775085,3.341398 h 1.058333 v -1.85105 c 0.122811,-0.462817 0.186849,-0.973 0.187069,-1.490348 -5e-5,-0.518046 -0.06409,-1.028973 -0.187069,-1.492415 v -1.848466 z"
           sodipodi:nodetypes="ccccccccc" /><ellipse
           style="fill:#ff2a2a;fill-opacity:1;stroke:#000000;stroke-width:0.287768;stroke-linecap:round;stroke-linejoin:round;stroke-dasharray:none;stroke-opacity:1"
           id="ellipse19139"
           cx="48.941616"
           cy="48.673161"
           rx="1.7747709"
           ry="3.3410208" /></g><path
         id="path19143"
         style="fill:#b3b3b3;fill-opacity:1;stroke:#000000;stroke-width:0.2;stroke-linecap:round;stroke-linejoin:round;stroke-dasharray:none;stroke-opacity:1"
         d="m 53.450775,36.725612 c -0.681109,4.91e-4 -1.233093,1.040145 -1.232999,2.322339 5.8e-5,1.281992 0.551997,2.321331 1.232999,2.321822 h 10.632426 v -4.644161 z"
         sodipodi:nodetypes="cccccc" /><g
         id="g19149"
         transform="translate(16.757638,-9.6446599)"><path
           id="path19145"
           style="fill:#ff2a2a;fill-opacity:1;stroke:#000000;stroke-width:0.288;stroke-linecap:round;stroke-linejoin:round;stroke-dasharray:none;stroke-opacity:1"
           d="m 47.883382,45.332117 c -0.980273,-3.27e-4 -1.775044,1.49551 -1.775085,3.340881 -1.11e-4,1.845573 0.794705,3.341725 1.775085,3.341398 h 1.058333 v -1.85105 c 0.122811,-0.462817 0.186849,-0.973 0.187069,-1.490348 -5e-5,-0.518046 -0.06409,-1.028973 -0.187069,-1.492415 v -1.848466 z"
           sodipodi:nodetypes="ccccccccc" /><ellipse
           style="fill:#ff2a2a;fill-opacity:1;stroke:#000000;stroke-width:0.287768;stroke-linecap:round;stroke-linejoin:round;stroke-dasharray:none;stroke-opacity:1"
           id="ellipse19147"
           cx="48.941616"
           cy="48.673161"
           rx="1.7747709"
           ry="3.3410208" /></g><path
         id="path19151"
         style="fill:#b3b3b3;fill-opacity:1;stroke:#000000;stroke-width:0.2;stroke-linecap:round;stroke-linejoin:round;stroke-dasharray:none;stroke-opacity:1"
         d="m 66.150783,36.725612 c -0.681109,4.91e-4 -1.233093,1.040145 -1.232999,2.322339 5.8e-5,1.281992 0.551997,2.321331 1.232999,2.321822 h 3.224093 v -4.644161 z"
         sodipodi:nodetypes="cccccc" /><g
         id="g19119"
         transform="translate(20.270815,-9.6446599)"><path
           id="path19115"
           style="fill:#ff2a2a;fill-opacity:1;stroke:#000000;stroke-width:0.288;stroke-linecap:round;stroke-linejoin:round;stroke-dasharray:none;stroke-opacity:1"
           d="m 47.883382,45.332117 c -0.980273,-3.27e-4 -1.775044,1.49551 -1.775085,3.340881 -1.11e-4,1.845573 0.794705,3.341725 1.775085,3.341398 h 1.058333 v -1.85105 c 0.122811,-0.462817 0.186849,-0.973 0.187069,-1.490348 -5e-5,-0.518046 -0.06409,-1.028973 -0.187069,-1.492415 v -1.848466 z"
           sodipodi:nodetypes="ccccccccc" /><ellipse
           style="fill:#ff2a2a;fill-opacity:1;stroke:#000000;stroke-width:0.287768;stroke-linecap:round;stroke-linejoin:round;stroke-dasharray:none;stroke-opacity:1"
           id="ellipse19117"
           cx="48.941616"
           cy="48.673161"
           rx="1.7747709"
           ry="3.3410208" /></g><path
         id="rect19367"
         style="fill:#040404;fill-opacity:0.45238096;stroke:none;stroke-width:0.288;stroke-linecap:round;stroke-linejoin:round;stroke-dasharray:none;stroke-opacity:1"
         d="m 46.177502,39.050559 c -5.7e-5,0.943458 0.201442,1.798329 0.536918,2.429826 0.335476,0.631496 0.817342,1.054904 1.380794,1.054716 h 1.05885 c 0.560349,0 1.042507,-0.418963 1.377694,-1.044897 h 0.03359 c 0.335245,0.626027 0.815117,1.045084 1.375626,1.044897 h 1.058334 c 0.560338,0 1.042507,-0.418984 1.377693,-1.044897 h 8.888348 c 0.335243,0.626027 0.815116,1.045084 1.375625,1.044897 h 1.058334 c 0.481755,0 0.90592,-0.310154 1.228348,-0.794783 0.322054,0.484977 0.744227,0.794943 1.226282,0.794783 h 1.058851 c 0.56328,0 1.047466,-0.423335 1.38286,-1.054716 0.335395,-0.631382 0.534852,-1.486578 0.534852,-2.429826 z" /><ellipse
         style="fill:#000000;fill-opacity:1;stroke:#000000;stroke-width:0.218942;stroke-linecap:round;stroke-linejoin:round;stroke-dasharray:none;stroke-opacity:1"
         id="ellipse19595"
         cx="69.212433"
         cy="39.0285"
         rx="1.235057"
         ry="2.7791159" /></g><g
       id="g18191"
       transform="translate(-1.3449261,-0.25452942)"><g
         id="g18180"
         transform="matrix(1.0772081,0,0,1.0772081,-4.5922496,-3.000905)"
         style="fill:#aa0000"><rect
           style="fill:#aa0000;fill-opacity:1;stroke:#000000;stroke-width:0.136429;stroke-linecap:round;stroke-linejoin:round;stroke-dasharray:none;stroke-opacity:1"
           id="rect16707"
           width="0.53567255"
           height="3.6416519"
           x="59.230251"
           y="35.498981"
           inkscape:transform-center-x="-0.027808622"
           inkscape:transform-center-y="-1.8075604" /><rect
           style="fill:#aa0000;fill-opacity:1;stroke:#000000;stroke-width:0.136429;stroke-linecap:round;stroke-linejoin:round;stroke-dasharray:none;stroke-opacity:1"
           id="rect16711"
           width="0.53567255"
           height="3.6416519"
           x="55.351135"
           y="-48.095085"
           inkscape:transform-center-x="-1.7276643"
           inkscape:transform-center-y="-0.5321765"
           transform="rotate(71.99807)" /><rect
           style="fill:#aa0000;fill-opacity:1;stroke:#000000;stroke-width:0.136429;stroke-linecap:round;stroke-linejoin:round;stroke-dasharray:none;stroke-opacity:1"
           id="rect18165"
           width="0.53567255"
           height="3.6416519"
           x="-25.351761"
           y="-70.239685"
           inkscape:transform-center-x="-1.0400065"
           inkscape:transform-center-y="1.4786527"
           transform="rotate(143.99807)" /><rect
           style="fill:#aa0000;fill-opacity:1;stroke:#000000;stroke-width:0.136429;stroke-linecap:round;stroke-linejoin:round;stroke-dasharray:none;stroke-opacity:1"
           id="rect18167"
           width="0.53567255"
           height="3.6416519"
           x="-71.351097"
           y="-0.3297286"
           inkscape:transform-center-x="1.0849012"
           inkscape:transform-center-y="1.4460348"
           transform="rotate(-144.00193)" /><rect
           style="fill:#aa0000;fill-opacity:1;stroke:#000000;stroke-width:0.136429;stroke-linecap:round;stroke-linejoin:round;stroke-dasharray:none;stroke-opacity:1"
           id="rect18169"
           width="0.53567255"
           height="3.6416519"
           x="-19.077354"
           y="65.021606"
           inkscape:transform-center-x="1.7105106"
           inkscape:transform-center-y="-0.58495109"
           transform="rotate(-72.00193)" /></g><circle
         style="fill:#550000;fill-opacity:1;stroke:#000000;stroke-width:0.2;stroke-linecap:round;stroke-linejoin:round;stroke-dasharray:none;stroke-opacity:1"
         id="circle15769"
         cx="59.498089"
         cy="39.140636"
         r="1.0351959" /><circle
         style="fill:#ff2a2a;fill-opacity:1;stroke:#000000;stroke-width:0.2;stroke-linecap:round;stroke-linejoin:round;stroke-dasharray:none;stroke-opacity:1"
         id="circle18171"
         cx="59.498089"
         cy="39.140636"
         r="0.51888829" /><path
         id="path15039"
         style="fill:#d40000;fill-opacity:1;stroke:#000000;stroke-width:0.2;stroke-linecap:round;stroke-linejoin:round;stroke-dasharray:none;stroke-opacity:1"
         d="m 59.498177,34.858337 a 4.2825279,4.2825279 0 0 0 -4.282426,4.282426 4.2825279,4.2825279 0 0 0 4.282426,4.282426 4.2825279,4.2825279 0 0 0 4.282426,-4.282426 4.2825279,4.2825279 0 0 0 -4.282426,-4.282426 z m 0,0.595313 a 3.6868634,3.6868634 0 0 1 3.686597,3.687113 3.6868634,3.6868634 0 0 1 -3.686597,3.686597 3.6868634,3.6868634 0 0 1 -3.687113,-3.686597 3.6868634,3.6868634 0 0 1 3.687113,-3.687113 z" /></g><path
       style="fill:none;fill-opacity:1;stroke:#000000;stroke-width:0.288;stroke-linecap:round;stroke-linejoin:round;stroke-dasharray:none;stroke-opacity:1;marker-end:url(#Arrow4)"
       d="m 38.51633,39.050559 h 5.776362"
       id="path19683" /><path
       style="fill:none;fill-opacity:1;stroke:#000000;stroke-width:0.288;stroke-linecap:round;stroke-linejoin:round;stroke-dasharray:none;stroke-opacity:1;marker-end:url(#Arrow4)"
       d="m 72.512409,39.050559 h 5.776362"
       id="path20168" /><g
       id="g7979"
       transform="translate(1.3229166)"><path
         id="path7975"
         style="fill:#646464;fill-opacity:1;stroke:#000000;stroke-width:0.2;stroke-linecap:round;stroke-linejoin:round;stroke-dasharray:none;stroke-opacity:1"
         d="m 80.203561,41.481055 c 1.43e-4,1.044398 1.519301,1.890971 3.393075,1.890841 1.873572,-2.9e-5 3.392415,-0.846555 3.392558,-1.890841 l -1.58e-4,-1.558196 h -6.785304 z"
         sodipodi:nodetypes="cccccc" /><path
         id="ellipse6148"
         style="fill:#646464;fill-opacity:1;stroke:#000000;stroke-width:0.2;stroke-linecap:round;stroke-linejoin:round;stroke-dasharray:none;stroke-opacity:1"
         d="m 80.203732,39.922859 c 1.43e-4,1.044398 1.519301,1.890971 3.393075,1.890841 1.873572,-2.9e-5 3.392415,-0.846555 3.392558,-1.890841 l -1.58e-4,-1.558196 h -6.785304 z"
         sodipodi:nodetypes="cccccc" /><path
         id="path7973"
         style="fill:#646464;fill-opacity:1;stroke:#000000;stroke-width:0.2;stroke-linecap:round;stroke-linejoin:round;stroke-dasharray:none;stroke-opacity:1"
         d="m 80.203903,38.364663 c 1.43e-4,1.044398 1.519301,1.890971 3.393075,1.890841 1.873572,-2.9e-5 3.392415,-0.846555 3.392558,-1.890841 l -1.58e-4,-1.558196 h -6.785304 z"
         sodipodi:nodetypes="cccccc" /><ellipse
         style="fill:#e3e3e3;fill-opacity:1;stroke:#000000;stroke-width:0.2;stroke-linecap:round;stroke-linejoin:round;stroke-dasharray:none;stroke-opacity:1"
         id="ellipse6146"
         cx="83.596725"
         cy="36.806465"
         rx="3.3926518"
         ry="1.8909855" /><path
         style="fill:none;fill-opacity:1;stroke:#000000;stroke-width:0.2;stroke-linecap:round;stroke-linejoin:round;stroke-dasharray:none;stroke-opacity:1"
         d="m 80.648308,38.460827 c 0.339676,0.36578 0.88197,0.765725 1.708241,0.864533"
         id="path21648"
         sodipodi:nodetypes="cc" /><circle
         style="fill:#000000;fill-opacity:1;stroke:#000000;stroke-width:0.2;stroke-linecap:round;stroke-linejoin:round;stroke-dasharray:none;stroke-opacity:1"
         id="path24678"
         cx="85.125557"
         cy="39.228611"
         r="0.11162109" /><circle
         style="fill:#000000;fill-opacity:1;stroke:#000000;stroke-width:0.2;stroke-linecap:round;stroke-linejoin:round;stroke-dasharray:none;stroke-opacity:1"
         id="circle25418"
         cx="85.787018"
         cy="38.988831"
         r="0.11162109" /><circle
         style="fill:#000000;fill-opacity:1;stroke:#000000;stroke-width:0.2;stroke-linecap:round;stroke-linejoin:round;stroke-dasharray:none;stroke-opacity:1"
         id="circle25420"
         cx="86.349258"
         cy="38.625027"
         r="0.11162109" /><path
         style="fill:none;fill-opacity:1;stroke:#000000;stroke-width:0.2;stroke-linecap:round;stroke-linejoin:round;stroke-dasharray:none;stroke-opacity:1"
         d="m 80.648308,40.031791 c 0.339676,0.36578 0.88197,0.765725 1.708241,0.864533"
         id="path26900"
         sodipodi:nodetypes="cc" /><circle
         style="fill:#000000;fill-opacity:1;stroke:#000000;stroke-width:0.2;stroke-linecap:round;stroke-linejoin:round;stroke-dasharray:none;stroke-opacity:1"
         id="circle26902"
         cx="85.125557"
         cy="40.799576"
         r="0.11162109" /><circle
         style="fill:#000000;fill-opacity:1;stroke:#000000;stroke-width:0.2;stroke-linecap:round;stroke-linejoin:round;stroke-dasharray:none;stroke-opacity:1"
         id="circle26904"
         cx="85.787018"
         cy="40.559795"
         r="0.11162109" /><circle
         style="fill:#000000;fill-opacity:1;stroke:#000000;stroke-width:0.2;stroke-linecap:round;stroke-linejoin:round;stroke-dasharray:none;stroke-opacity:1"
         id="circle26906"
         cx="86.349258"
         cy="40.195992"
         r="0.11162109" /><path
         style="fill:none;fill-opacity:1;stroke:#000000;stroke-width:0.2;stroke-linecap:round;stroke-linejoin:round;stroke-dasharray:none;stroke-opacity:1"
         d="m 80.648308,41.652364 c 0.339676,0.36578 0.88197,0.765725 1.708241,0.864533"
         id="path26908"
         sodipodi:nodetypes="cc" /><circle
         style="fill:#000000;fill-opacity:1;stroke:#000000;stroke-width:0.2;stroke-linecap:round;stroke-linejoin:round;stroke-dasharray:none;stroke-opacity:1"
         id="circle26910"
         cx="85.125557"
         cy="42.420147"
         r="0.11162109" /><circle
         style="fill:#000000;fill-opacity:1;stroke:#000000;stroke-width:0.2;stroke-linecap:round;stroke-linejoin:round;stroke-dasharray:none;stroke-opacity:1"
         id="circle26912"
         cx="85.787018"
         cy="42.180367"
         r="0.11162109" /><circle
         style="fill:#000000;fill-opacity:1;stroke:#000000;stroke-width:0.2;stroke-linecap:round;stroke-linejoin:round;stroke-dasharray:none;stroke-opacity:1"
         id="circle26914"
         cx="86.349258"
         cy="41.816563"
         r="0.11162109" /><path
         id="path32822"
         style="fill:#000000;fill-opacity:0.345238;stroke:none;stroke-width:0.2;stroke-linecap:round;stroke-linejoin:round;stroke-dasharray:none;stroke-opacity:0.528571"
         d="m 80.204079,36.806405 v 1.558044 1.558045 l -5.17e-4,1.558561 c 1.43e-4,1.044396 1.519304,1.890971 3.393074,1.890841 1.87357,-2.9e-5 3.392415,-0.846557 3.392558,-1.890841 -4.797579,1.523996 -6.049005,0.53433 -6.440886,-3.746912 -0.03852,-0.420864 -0.256283,-0.503895 -0.344229,-0.927738 z"
         sodipodi:nodetypes="ccccccsc" /></g><text
       xml:space="preserve"
       style="font-size:4.93889px;font-family:Arial;-inkscape-font-specification:Arial;text-align:center;text-anchor:middle;fill:#ffffff;stroke-width:0.2;stroke-linecap:round;stroke-linejoin:round;stroke-dasharray:0.2, 0.4"
       x="114.08514"
       y="21.134554"
       id="text354"><tspan
         sodipodi:role="line"
         id="tspan352"
         style="font-size:4.93889px;fill:#000000;fill-opacity:1;stroke-width:0.2"
         x="114.08514"
         y="21.134554">Data Science</tspan></text><path
       style="fill:none;fill-opacity:1;stroke:#000000;stroke-width:0.288;stroke-linecap:round;stroke-linejoin:round;stroke-dasharray:none;stroke-opacity:1;marker-end:url(#Arrow4)"
       d="m 90.900951,39.050559 h 5.776362"
       id="path458" /><g
       id="g6773"
       transform="matrix(-0.83895583,-0.54419951,-0.54419951,0.83895583,224.49,67.56616)"><rect
         style="fill:url(#radialGradient1362);fill-opacity:1;stroke-width:0.157568;stroke-linecap:round;stroke-linejoin:round;stroke-opacity:0.528571"
         id="rect733"
         width="0.84189892"
         height="7.0158248"
         x="110.96863"
         y="40.786705" /><circle
         style="fill:#363636;fill-opacity:1;stroke-width:0.254997;stroke-linecap:round;stroke-linejoin:round;stroke-opacity:0.528571"
         id="circle514"
         cx="111.38958"
         cy="39.158333"
         r="3.0360603" /><circle
         style="fill:#ffffff;fill-opacity:0.798578;stroke-width:0.2;stroke-linecap:round;stroke-linejoin:round;stroke-opacity:0.528571"
         id="path512"
         cx="111.38958"
         cy="39.158333"
         r="2.3812499" /><path
         style="fill:#ffffff;fill-opacity:1;stroke-width:0.2;stroke-linecap:round;stroke-linejoin:round;stroke-opacity:0.528571"
         d="m 113.15072,38.277767 c -0.0191,-0.680643 -2.31535,-1.632508 -2.68718,-0.789616 -0.37183,0.842892 2.42512,0.560753 2.68718,0.789616 z"
         id="path583"
         sodipodi:nodetypes="czc" /></g></g></svg>
